<?xml version="1.0" standalone="no"?>
<!DOCTYPE svg PUBLIC "-//W3C//DTD SVG 20010904//EN"
 "http://www.w3.org/TR/2001/REC-SVG-20010904/DTD/svg10.dtd">
<svg version="1.0" xmlns="http://www.w3.org/2000/svg"
 width="400.000000pt" height="225.000000pt" viewBox="0 0 400.000000 225.000000"
 preserveAspectRatio="xMidYMid meet">

<g transform="translate(0.000000,225.000000) scale(0.100000,-0.100000)"
fill="#000000" stroke="none">
<path d="M0 1125 l0 -1125 2000 0 2000 0 0 1125 0 1125 -2000 0 -2000 0 0
-1125z m470 680 l1 20 9 -20 c5 -11 9 -16 9 -12 1 5 9 1 18 -9 12 -12 18 -13
21 -4 3 9 6 9 13 -1 7 -11 9 -10 9 4 0 10 5 15 10 12 6 -3 10 1 10 9 0 20 23
16 32 -4 5 -12 7 -12 7 3 1 17 3 17 34 1 25 -13 29 -14 20 -3 -10 12 -8 15 12
15 19 0 22 -3 13 -14 -9 -10 -8 -12 3 -10 8 2 17 8 21 13 5 6 8 6 8 -1 0 -7
13 -10 28 -9 18 1 29 -3 29 -11 0 -7 -5 -12 -10 -11 -9 2 -11 -3 -20 -53 -6
-39 14 -52 42 -27 17 16 25 18 28 9 3 -6 9 -10 14 -6 5 3 9 0 9 -6 0 -7 -8 -9
-20 -5 -12 4 -20 2 -20 -5 0 -6 -4 -9 -9 -5 -5 3 -13 1 -16 -5 -4 -7 -11 -7
-18 -2 -7 5 -20 8 -29 7 -10 -2 -18 1 -18 6 0 5 5 9 11 9 6 0 9 12 8 28 -2 15
0 32 4 38 4 7 0 17 -7 23 -10 8 -16 9 -21 1 -3 -6 -12 -7 -18 -4 -7 4 -9 3 -4
-1 4 -5 0 -17 -10 -27 -16 -17 -17 -17 -37 -1 -21 18 -21 18 -3 -3 9 -11 14
-25 10 -30 -5 -5 2 -1 14 9 14 13 23 15 28 7 5 -8 11 -8 21 1 11 9 14 8 14 -3
0 -9 -8 -15 -20 -14 -11 0 -20 -2 -20 -6 -1 -30 1 -38 8 -35 4 1 8 -2 10 -7 1
-6 -4 -11 -12 -12 -9 -1 -14 3 -13 9 2 14 -34 10 -48 -5 -7 -8 -6 -9 3 -3 11
6 11 3 0 -14 -7 -12 -16 -21 -20 -21 -5 0 -8 -7 -8 -17 0 -15 1 -15 18 0 14
13 21 14 30 5 18 -18 42 -18 42 -1 0 12 -3 13 -14 4 -10 -8 -16 -9 -21 -1 -4
6 -1 9 7 8 7 -2 12 3 11 9 -4 18 20 11 29 -7 4 -10 7 -6 7 12 1 28 17 32 44
10 10 -9 17 -10 22 -2 3 5 16 10 28 9 21 0 21 -1 -3 -10 -20 -8 -22 -12 -10
-20 11 -8 12 -12 3 -16 -7 -2 -13 -11 -13 -20 0 -11 7 -13 32 -7 29 6 31 5 19
-10 -7 -8 -17 -13 -22 -10 -16 10 -49 -7 -49 -25 0 -10 -7 -18 -15 -18 -8 0
-15 4 -15 9 0 5 -7 2 -16 -7 -14 -13 -19 -14 -25 -3 -5 7 -9 9 -9 3 0 -5 -7
-1 -15 9 -8 11 -18 16 -22 13 -4 -4 3 -14 15 -23 12 -8 22 -21 22 -27 0 -8 -3
-8 -9 1 -9 16 -21 18 -30 5 -3 -4 -15 -15 -26 -23 -19 -14 -19 -14 -5 4 14 18
13 18 -9 11 -16 -5 -26 -3 -32 6 -7 12 -9 11 -9 -1 0 -8 -19 -33 -40 -55 -22
-22 -40 -45 -40 -53 0 -10 -5 -10 -21 -2 -16 9 -25 8 -40 -6 -18 -17 -18 -17
1 -34 18 -15 19 -21 7 -42 -7 -14 -20 -24 -29 -22 -10 1 -22 -4 -28 -11 -9
-11 -7 -12 9 -8 15 4 21 1 21 -11 0 -14 3 -14 20 -4 10 7 22 9 25 6 12 -12 -6
-67 -23 -70 -11 -2 -13 -6 -6 -11 7 -4 22 2 35 12 14 11 36 17 51 16 19 -2 29
2 33 14 6 20 59 53 69 43 4 -4 6 0 4 8 -1 8 2 14 8 13 6 -1 17 9 24 22 7 14
22 25 32 25 10 0 18 4 18 10 0 5 20 21 45 35 39 23 58 31 86 34 3 1 16 10 29
21 18 16 20 23 11 34 -20 24 7 55 46 54 18 -1 33 -5 33 -10 0 -4 5 -7 12 -6
18 4 37 22 31 31 -2 4 1 7 6 7 6 0 11 -5 11 -11 0 -5 4 -8 10 -4 5 3 6 13 3
23 -4 12 -1 11 14 -5 11 -13 23 -19 27 -15 4 4 6 0 4 -8 -4 -17 21 -21 41 -6
20 15 44 17 32 2 -8 -9 5 -12 54 -11 35 0 67 4 72 9 4 5 3 6 -4 2 -6 -3 -14
-3 -17 2 -2 4 11 8 29 8 26 0 31 -3 24 -13 -8 -9 -6 -11 10 -8 14 2 21 -1 21
-11 0 -8 5 -12 10 -9 6 3 10 -1 10 -10 0 -9 -4 -13 -10 -10 -5 3 -10 -1 -10
-10 0 -9 4 -14 9 -11 5 4 11 3 14 -1 2 -5 2 -3 1 4 -2 7 1 15 6 18 6 4 10 -10
10 -30 0 -22 4 -34 10 -30 6 3 10 1 10 -6 0 -7 3 -9 6 -6 4 4 1 13 -6 21 -6 9
-10 21 -7 28 3 8 6 6 6 -5 1 -10 6 -15 11 -12 6 4 10 -8 10 -30 0 -22 4 -34
10 -30 6 4 9 1 8 -7 -2 -7 2 -12 8 -11 6 1 11 -4 11 -12 0 -8 -5 -13 -11 -12
-6 1 -10 -3 -9 -10 2 -7 -6 -10 -18 -8 -18 4 -19 2 -8 -11 10 -12 10 -15 -2
-12 -8 2 -17 10 -21 18 -4 9 -7 -2 -8 -25 -2 -39 -3 -39 -10 -10 -4 17 -8 22
-9 12 0 -10 -5 -15 -11 -12 -5 3 -10 1 -10 -4 0 -6 5 -11 10 -11 6 0 10 -8 10
-17 0 -15 -2 -16 -10 -3 -7 11 -10 3 -10 -28 0 -24 -4 -41 -9 -38 -5 3 -8 14
-6 24 1 9 0 11 -2 4 -3 -7 -10 -9 -16 -5 -9 5 -9 3 -1 -8 12 -16 -7 -64 -21
-51 -5 4 -5 1 -1 -6 6 -10 11 -10 22 -1 7 6 12 15 9 18 -2 4 2 8 9 8 15 0 15
-14 3 -35 -5 -7 -12 -10 -17 -7 -4 3 -13 -2 -20 -9 -6 -8 -20 -13 -30 -11 -11
2 -19 0 -17 -5 1 -4 -1 -7 -4 -7 -4 1 -15 -5 -25 -14 -11 -9 -27 -15 -36 -14
-10 2 -16 0 -15 -5 1 -4 -2 -8 -8 -8 -5 0 -9 3 -8 7 1 4 -4 8 -11 8 -7 0 -13
-6 -13 -13 0 -7 4 -11 9 -8 15 9 8 -3 -9 -17 -10 -8 -14 -9 -10 -2 4 6 3 14
-3 18 -5 3 -10 -1 -10 -10 0 -9 -4 -14 -9 -11 -5 3 -14 -1 -21 -8 -6 -8 -20
-13 -31 -11 -11 2 -19 -2 -19 -10 0 -8 -11 -12 -30 -11 -16 1 -30 -1 -30 -6 0
-10 -60 -25 -135 -33 -118 -13 -201 -28 -267 -49 -25 -8 -48 -12 -51 -10 -2 3
-4 -6 -4 -19 0 -19 5 -23 34 -25 19 -2 58 6 87 17 29 11 77 21 107 22 30 2 90
15 135 30 44 16 91 30 105 33 24 4 111 26 204 51 43 12 124 27 140 26 2 0 18
4 35 9 21 6 30 5 30 -3 0 -9 2 -9 8 -1 4 6 22 13 40 16 27 4 32 2 31 -16 0
-12 -3 -16 -6 -9 -3 8 -13 4 -29 -12 -28 -28 -44 -34 -23 -9 7 9 -3 5 -24 -9
-21 -14 -47 -24 -57 -22 -11 2 -19 -1 -17 -8 1 -6 -9 -12 -23 -12 -14 0 -24
-6 -23 -12 1 -6 -5 -10 -15 -8 -9 1 -23 -3 -31 -9 -10 -7 -13 -7 -8 0 3 6 0
11 -8 11 -8 0 -13 -5 -12 -11 1 -6 -4 -10 -10 -9 -7 2 -13 -3 -13 -11 0 -7 -8
-13 -17 -12 -10 0 -37 -7 -61 -16 -23 -10 -44 -17 -46 -15 -2 1 -12 -5 -22
-13 -11 -9 -31 -22 -46 -29 -15 -8 -24 -19 -21 -24 4 -6 0 -8 -10 -4 -9 3 -22
1 -29 -6 -8 -7 -19 -13 -27 -15 -7 -1 -20 -9 -28 -17 -21 -21 -20 -21 117 -6
92 11 96 10 113 -11 10 -12 26 -22 35 -23 25 -1 43 -15 37 -26 -4 -5 0 -9 7
-9 12 0 78 -53 78 -62 0 -2 -12 -4 -27 -3 -29 0 -73 -30 -73 -50 0 -23 22 -34
44 -22 11 7 24 17 28 22 5 6 8 5 8 -3 0 -8 5 -10 13 -6 6 4 9 4 5 0 -3 -4 -9
-7 -12 -7 -13 2 -46 -40 -46 -59 0 -26 18 -25 48 3 23 20 25 20 18 3 -6 -18
-5 -19 11 -4 35 30 46 33 33 8 -6 -12 -9 -24 -6 -28 3 -3 6 0 6 7 0 8 6 9 18
3 9 -5 29 -9 45 -8 18 1 27 -3 27 -14 0 -13 1 -13 10 0 5 8 10 10 10 4 0 -6 7
-11 15 -11 11 0 12 4 4 13 -7 9 -6 12 8 9 10 -1 17 -8 15 -14 -1 -6 2 -10 7
-9 5 2 25 -14 44 -34 32 -35 35 -36 55 -22 21 14 23 14 32 -12 8 -21 13 -24
24 -15 11 10 15 8 19 -6 3 -12 5 -8 6 9 l1 28 26 -23 c15 -12 38 -33 51 -47
15 -15 23 -19 21 -10 -2 8 2 14 8 13 6 -1 11 4 11 12 0 8 -3 12 -7 10 -3 -2
-7 8 -8 21 -1 15 2 23 8 19 6 -4 7 -12 4 -18 -5 -8 -3 -8 6 0 11 10 17 9 32
-4 10 -9 18 -22 18 -30 0 -9 5 -11 13 -7 9 6 9 4 -1 -8 -10 -13 -10 -18 -1
-24 7 -4 9 -3 6 3 -3 5 0 10 7 10 7 0 13 -6 13 -13 0 -7 -5 -12 -11 -11 -6 1
-10 -3 -9 -9 1 -6 -4 -11 -12 -11 -8 0 -12 4 -9 8 2 4 0 10 -6 14 -5 3 -10 0
-10 -8 0 -10 -9 -14 -30 -12 -19 2 -30 -2 -30 -10 0 -8 -11 -12 -30 -11 -16 1
-30 -1 -30 -5 0 -14 -52 -16 -66 -2 -9 10 -14 10 -14 3 0 -7 -6 -10 -14 -7 -7
3 -18 1 -23 -4 -7 -7 -16 -5 -27 6 -15 15 -16 15 -17 -2 0 -14 -2 -15 -7 -3
-9 20 -32 24 -32 4 0 -8 -4 -12 -10 -9 -5 3 -10 1 -10 -4 0 -6 5 -11 10 -11 6
0 10 -8 11 -17 0 -16 2 -15 10 2 8 19 9 19 6 1 -1 -11 -11 -21 -22 -23 -31 -7
-565 -9 -791 -3 -174 4 -205 7 -221 23 -11 9 -23 14 -26 10 -4 -3 -7 1 -7 11
0 11 -4 15 -12 10 -8 -5 -7 0 2 11 9 11 10 16 3 11 -9 -5 -13 1 -13 19 0 18
-4 24 -12 19 -8 -5 -7 0 2 11 9 11 10 16 2 11 -8 -5 -12 1 -12 19 0 15 -4 24
-10 20 -6 -4 -10 9 -10 31 0 21 -3 34 -7 31 -3 -4 -12 5 -20 19 -15 30 -17 48
-5 40 5 -3 9 1 9 9 0 8 -4 12 -9 9 -4 -3 -8 5 -8 18 0 13 -6 30 -12 36 -10 10
-10 17 0 33 8 12 9 18 3 14 -7 -4 -11 8 -11 33 0 40 -21 96 -34 87 -3 -3 -2 0
4 7 7 8 4 18 -10 33 -12 13 -21 38 -23 62 -1 23 -5 39 -9 36 -7 -4 -12 22 -5
30 1 2 -3 10 -9 18 -17 22 -19 89 -17 483 2 315 5 371 18 386 8 9 12 20 8 25
-5 4 -2 5 5 1 7 -4 12 -2 12 6 0 9 12 14 35 14 19 0 35 -3 35 -7 0 -4 7 -10
16 -13 14 -6 15 -4 4 9 -11 13 -11 16 1 13 8 -2 17 -10 21 -18 5 -12 7 -11 7
4 1 13 6 17 21 13 11 -3 20 0 20 6 0 7 5 5 10 -3 8 -12 10 -10 10 10 0 14 4
21 8 15 11 -15 32 -17 32 -2 0 8 4 7 10 -3 8 -12 10 -12 11 5 l0 20 9 -20 9
-20 1 20z m240 -60 c-7 -8 -17 -12 -22 -9 -5 3 -1 15 9 26 20 22 32 6 13 -17z
m210 -115 c0 -11 -7 -20 -15 -20 -13 0 -13 3 -3 20 7 11 14 20 15 20 2 0 3 -9
3 -20z m-110 -100 c-20 -13 -33 -13 -25 0 3 6 14 10 23 10 15 0 15 -2 2 -10z
m-297 -173 c7 4 6 -1 -2 -10 -7 -9 -17 -15 -21 -12 -5 3 -16 -5 -24 -17 -9
-12 -16 -19 -16 -15 0 15 45 68 48 58 2 -6 9 -8 15 -4z m1125 -26 c-2 -20 4
-22 20 -8 15 14 19 14 19 3 0 -8 -3 -14 -6 -13 -3 1 -6 -2 -6 -8 0 -5 2 -9 6
-8 3 1 5 -9 5 -21 0 -16 -5 -23 -15 -21 -9 1 -14 6 -11 11 3 5 9 8 13 6 5 -1
6 2 2 8 -5 8 -12 7 -22 -2 -9 -7 -19 -12 -22 -10 -3 1 -5 -5 -5 -13 1 -8 2
-22 3 -31 0 -8 6 -12 11 -9 8 5 8 11 0 20 -7 8 -7 15 -1 19 10 6 25 -11 26
-29 1 -5 6 -9 13 -7 16 3 15 -6 -3 -25 -12 -12 -19 -13 -30 -3 -12 10 -15 9
-15 -3 0 -9 -4 -19 -10 -22 -7 -4 -7 3 0 19 9 23 6 29 -10 28 -3 0 -6 15 -6
33 0 18 5 33 11 32 5 -1 9 4 8 11 -2 6 0 11 5 10 4 -2 8 2 9 7 0 6 -2 9 -6 8
-4 -1 -8 4 -8 11 0 7 6 13 13 13 7 0 13 -3 12 -6z m82 -4 c0 -8 -7 -14 -15
-14 -11 0 -12 4 -4 14 6 7 13 13 15 13 2 0 4 -6 4 -13z m-1200 -11 c0 -2 -7
-6 -15 -10 -8 -3 -15 -1 -15 4 0 6 7 10 15 10 8 0 15 -2 15 -4z m1240 -517 c0
-5 6 -7 13 -3 6 4 9 3 4 -1 -4 -5 5 -22 20 -38 16 -17 23 -27 17 -24 -6 3 -11
0 -11 -8 0 -8 5 -13 10 -12 6 1 16 -8 22 -20 7 -13 14 -21 16 -18 3 2 5 -11 5
-30 0 -18 -4 -31 -8 -29 -4 3 -8 -9 -8 -25 0 -17 -1 -31 -2 -32 -2 0 -32 -3
-68 -6 -36 -3 -68 -10 -72 -16 -7 -11 -12 -3 -10 14 1 3 -6 6 -14 6 -7 0 -14
-7 -14 -14 0 -8 5 -11 10 -8 6 3 10 0 10 -8 0 -7 -7 -14 -15 -14 -8 0 -12 4
-9 8 2 4 0 10 -6 14 -6 4 -7 12 -4 18 4 7 4 9 -1 5 -4 -4 -15 -3 -22 4 -11 9
-17 9 -24 -3 -6 -10 -9 -10 -9 -1 0 6 -7 12 -15 12 -8 0 -15 -4 -15 -10 0 -5
3 -9 8 -7 4 1 7 -2 7 -8 0 -5 -3 -9 -7 -8 -3 1 -5 -5 -4 -14 2 -9 10 -17 20
-19 13 -2 15 1 6 11 -7 8 -7 15 -1 19 5 4 13 2 16 -4 5 -8 11 -8 19 -1 9 8 13
7 13 -4 0 -8 -3 -13 -5 -10 -3 3 -12 -1 -20 -7 -18 -16 -62 -18 -59 -4 1 6 -4
10 -12 8 -11 -2 -12 0 -3 11 9 11 8 14 -3 14 -8 0 -15 -6 -15 -12 0 -6 -7 -12
-15 -12 -10 0 -12 4 -5 12 7 9 0 11 -30 10 -32 -2 -38 1 -29 11 8 10 6 12 -10
9 -12 -2 -19 0 -16 5 3 5 1 11 -5 15 -5 3 -10 -2 -11 -12 0 -15 -1 -16 -7 -2
-4 9 -15 15 -26 13 -14 -2 -16 0 -7 9 14 14 61 17 58 4 -1 -5 5 -11 14 -12 9
-2 16 4 16 11 0 8 -3 12 -5 9 -3 -3 -10 0 -17 5 -6 5 -21 11 -32 13 -12 2 -28
9 -37 16 -9 7 -16 10 -16 6 0 -5 -9 0 -21 11 -12 10 -24 19 -28 18 -9 -2 -41
20 -41 28 0 8 37 22 60 23 8 0 20 3 26 7 6 4 39 10 74 13 35 3 66 8 70 10 3 2
33 7 65 10 33 4 69 12 80 18 17 9 102 33 128 36 4 1 7 -4 7 -10z m-572 -122
c-1 -2 4 -12 12 -22 14 -17 13 -18 -5 -11 -11 5 -26 9 -33 9 -8 0 -7 6 5 19 9
10 18 16 20 14 3 -2 3 -6 1 -9z m168 -69 c2 1 4 -1 4 -5 0 -4 -6 -8 -14 -9 -9
-1 -14 3 -13 9 1 7 -3 11 -9 10 -6 -1 -11 5 -11 13 0 11 4 11 20 -3 10 -10 21
-17 23 -15z m-69 -43 c8 -9 13 -18 10 -21 -6 -7 -47 18 -47 28 0 13 21 9 37
-7z m337 -26 c-3 -5 -10 -7 -15 -3 -5 3 -7 10 -3 15 3 5 10 7 15 3 5 -3 7 -10
3 -15z m-149 -19 c4 -6 3 -9 -2 -8 -4 2 -9 -1 -9 -7 -1 -5 2 -9 8 -7 5 1 7 -2
3 -8 -5 -8 -11 -8 -19 -1 -7 6 -15 9 -18 6 -2 -3 -5 2 -5 10 0 8 4 12 8 9 4
-2 10 0 14 6 8 13 12 13 20 0z m270 -10 c3 -5 1 -10 -4 -10 -6 0 -11 5 -11 10
0 6 2 10 4 10 3 0 8 -4 11 -10z m-525 -24 c0 -2 -7 -7 -16 -10 -8 -3 -12 -2
-9 4 6 10 25 14 25 6z m377 -128 c-3 -8 -6 -5 -6 6 -1 11 2 17 5 13 3 -3 4
-12 1 -19z m1986 -63 c11 2 17 1 14 -2 -3 -2 -9 -5 -14 -5 -4 0 -13 -4 -20 -9
-7 -7 -14 -6 -18 1 -5 8 -11 8 -20 0 -9 -7 -16 -6 -24 4 -9 11 -7 13 11 12 15
-1 22 4 20 14 -3 12 0 12 15 -2 10 -8 26 -14 36 -13z m114 9 c0 -7 -3 -11 -7
-9 -4 2 -7 -2 -7 -9 0 -7 6 -13 13 -13 7 0 12 5 11 11 -1 5 9 11 23 11 14 1
24 6 23 11 -1 6 4 11 12 11 8 0 13 -5 12 -11 -1 -6 3 -10 9 -9 6 1 11 -4 11
-12 0 -8 -4 -13 -8 -12 -4 1 -6 -2 -5 -8 0 -5 4 -9 7 -8 3 1 6 -4 6 -12 0 -8
-5 -13 -11 -12 -6 1 -10 -4 -8 -11 1 -6 -3 -11 -10 -10 -7 2 -12 -2 -13 -9 0
-6 -4 -15 -8 -19 -11 -11 -37 -14 -34 -4 1 4 -2 7 -8 6 -5 0 -9 -4 -8 -7 1 -4
-11 -5 -28 -4 -16 1 -32 -1 -35 -6 -3 -5 -11 -6 -17 -2 -17 11 -130 11 -144 1
-6 -5 -14 -4 -18 3 -6 8 -10 7 -16 -2 -7 -11 -9 -11 -9 -1 0 7 -4 11 -9 8 -13
-9 -7 19 8 38 13 15 8 21 -13 17 -5 -1 -4 5 3 13 7 9 18 14 24 13 7 -1 11 3
10 9 -1 6 10 10 25 8 35 -3 34 -2 27 -14 -5 -8 -11 -8 -19 -1 -9 8 -18 6 -30
-7 -13 -15 -13 -19 -2 -19 8 0 14 3 13 6 -1 3 3 7 8 7 6 1 9 -2 8 -7 -2 -5 0
-8 5 -7 4 2 7 -1 7 -7 0 -5 -3 -9 -7 -7 -5 1 -7 -1 -5 -5 1 -5 -2 -8 -8 -8 -5
0 -9 3 -8 6 1 3 -4 6 -12 6 -8 0 -11 -5 -8 -10 3 -6 2 -7 -4 -4 -5 3 -10 0
-10 -8 0 -11 4 -12 13 -4 8 7 14 7 19 -1 3 -6 12 -7 18 -3 17 11 90 11 104 1
6 -5 14 -5 18 2 3 6 10 8 14 6 4 -3 8 1 8 9 0 8 -4 13 -8 12 -4 -1 -7 3 -7 8
0 6 3 9 7 8 4 -1 8 4 8 11 0 7 -6 13 -13 13 -7 0 -12 -4 -11 -8 1 -4 -2 -6 -8
-6 -5 1 -9 5 -8 9 3 9 -25 4 -34 -7 -4 -4 -3 -5 4 -1 6 3 14 2 17 -3 3 -4 -3
-8 -14 -7 -11 0 -18 -3 -17 -9 1 -5 6 -9 10 -7 5 1 6 -2 2 -8 -5 -8 -11 -8
-19 -1 -7 6 -17 7 -22 3 -4 -4 -2 2 6 12 8 11 10 17 3 13 -20 -13 -23 10 -4
27 13 12 21 14 26 6 4 -7 11 -7 18 -2 7 5 24 8 39 7 20 -1 25 1 18 10 -7 8 -1
11 23 11 18 -1 31 4 30 10 -1 6 4 11 11 11 7 0 13 -6 13 -13z m-93 -106 c-3
-5 -12 -4 -20 3 -7 6 -11 15 -8 21 3 5 12 4 20 -3 7 -6 11 -15 8 -21z"/>
<path d="M740 1627 c0 -8 7 -14 15 -14 11 0 12 4 4 14 -6 7 -13 13 -15 13 -2
0 -4 -6 -4 -13z"/>
<path d="M555 1591 c-3 -5 -1 -12 5 -16 6 -4 7 -11 4 -17 -4 -7 -2 -8 5 -4 8
6 9 12 2 20 -6 7 -8 16 -4 19 3 4 4 7 0 7 -3 0 -8 -4 -12 -9z"/>
<path d="M733 1580 c-11 -16 -10 -18 2 -14 8 4 15 12 15 20 0 19 -3 18 -17 -6z"/>
<path d="M1023 1505 c0 -8 4 -12 9 -9 4 3 8 -1 8 -9 0 -7 7 -14 15 -14 12 0
10 6 -7 24 -25 27 -25 27 -25 8z"/>
<path d="M1206 1482 c-3 -5 1 -9 9 -9 8 0 12 4 9 9 -3 4 -7 8 -9 8 -2 0 -6 -4
-9 -8z"/>
<path d="M941 1473 c-1 -8 -15 -13 -33 -14 -18 0 -27 -3 -20 -6 6 -2 9 -9 6
-15 -4 -6 2 -8 17 -3 32 10 42 20 36 37 -4 9 -6 10 -6 1z"/>
<path d="M490 1450 c-8 -5 -12 -12 -9 -15 4 -3 12 1 19 10 14 17 11 19 -10 5z"/>
<path d="M1361 1324 c0 -11 3 -14 6 -6 3 7 2 16 -1 19 -3 4 -6 -2 -5 -13z"/>
<path d="M1400 1324 c0 -8 5 -12 10 -9 6 4 8 11 5 16 -9 14 -15 11 -15 -7z"/>
<path d="M1341 1304 c0 -11 3 -14 6 -6 3 7 2 16 -1 19 -3 4 -6 -2 -5 -13z"/>
<path d="M1246 1088 c3 -5 10 -6 15 -3 13 9 11 12 -6 12 -8 0 -12 -4 -9 -9z"/>
<path d="M1166 1048 c3 -5 10 -6 15 -3 13 9 11 12 -6 12 -8 0 -12 -4 -9 -9z"/>
<path d="M1070 560 c-8 -5 -11 -12 -7 -16 4 -4 13 -2 19 4 15 15 7 24 -12 12z"/>
<path d="M281 524 c0 -11 3 -14 6 -6 3 7 2 16 -1 19 -3 4 -6 -2 -5 -13z"/>
<path d="M1643 1205 c0 -8 4 -12 9 -9 5 3 6 10 3 15 -9 13 -12 11 -12 -6z"/>
<path d="M1763 605 c0 -6 6 -12 12 -12 6 0 12 6 12 12 0 6 -6 12 -12 12 -6 0
-12 -6 -12 -12z"/>
<path d="M1801 604 c0 -11 3 -14 6 -6 3 7 2 16 -1 19 -3 4 -6 -2 -5 -13z"/>
<path d="M1821 584 c0 -11 3 -14 6 -6 3 7 2 16 -1 19 -3 4 -6 -2 -5 -13z"/>
<path d="M1483 565 c0 -6 6 -12 12 -12 6 0 12 6 12 12 0 6 -6 12 -12 12 -6 0
-12 -6 -12 -12z"/>
<path d="M1523 565 c0 -6 6 -12 12 -12 6 0 12 6 12 12 0 6 -6 12 -12 12 -6 0
-12 -6 -12 -12z"/>
<path d="M3756 292 c-4 -4 -13 -7 -19 -7 -7 0 -12 -10 -12 -22 0 -13 -4 -23
-10 -22 -5 1 -9 4 -8 8 1 4 -4 8 -12 8 -8 0 -13 -4 -12 -8 1 -4 -2 -7 -8 -7
-5 0 -9 3 -8 7 1 4 -4 8 -11 8 -8 0 -12 -14 -11 -36 1 -41 18 -48 51 -19 21
19 22 19 27 -2 3 -13 10 -19 17 -15 6 4 9 10 6 13 -4 3 3 16 15 28 14 15 17
24 9 29 -8 5 -8 10 0 20 12 14 -2 30 -14 17z m2 -36 c0 -11 -4 -26 -10 -33
-13 -16 -33 -6 -20 10 5 7 8 19 7 28 -2 9 3 16 9 16 7 0 13 -10 14 -21z m-73
-26 c3 6 11 8 16 4 5 -3 7 -10 3 -15 -3 -5 -10 -7 -15 -4 -5 4 -9 0 -9 -8 0
-7 -6 -14 -13 -14 -7 0 -13 11 -13 23 0 17 3 20 12 13 8 -7 14 -7 19 1z"/>
<path d="M3646 282 c-3 -5 1 -9 9 -9 8 0 12 4 9 9 -3 4 -7 8 -9 8 -2 0 -6 -4
-9 -8z"/>
<path d="M3526 261 c-4 -5 -2 -12 3 -15 5 -4 12 -2 15 3 4 5 2 12 -3 15 -5 4
-12 2 -15 -3z"/>
</g>
</svg>
