<?xml version="1.0" standalone="no"?>
<!DOCTYPE svg PUBLIC "-//W3C//DTD SVG 20010904//EN"
 "http://www.w3.org/TR/2001/REC-SVG-20010904/DTD/svg10.dtd">
<svg version="1.0" xmlns="http://www.w3.org/2000/svg"
 width="1000.000000pt" height="563.000000pt" viewBox="0 0 1000.000000 563.000000"
 preserveAspectRatio="xMidYMid meet">

<g transform="translate(0.000000,563.000000) scale(0.100000,-0.100000)"
fill="#000000" stroke="none">
<path d="M0 2815 l0 -2815 5000 0 5000 0 0 2815 0 2815 -5000 0 -5000 0 0
-2815z m2080 2047 c0 -12 -3 -12 -15 -2 -8 7 -15 13 -15 15 0 1 7 2 15 2 8 0
15 -7 15 -15z m-523 -284 c-3 -8 -6 -5 -6 6 -1 11 2 17 5 13 3 -3 4 -12 1 -19z
m40 7 c0 -6 -6 -12 -12 -12 -6 0 -12 6 -12 12 0 6 6 12 12 12 6 0 12 -6 12
-12z m120 -41 c0 -7 -4 -11 -9 -8 -4 3 -8 -2 -8 -11 0 -9 5 -13 10 -10 6 3 10
-2 10 -11 0 -16 -1 -16 -20 1 -19 17 -20 17 -20 1 0 -9 5 -14 10 -11 6 3 10
-1 10 -10 0 -9 -4 -14 -8 -11 -5 3 -9 -1 -9 -9 0 -8 3 -13 6 -12 3 1 6 -2 6
-8 0 -5 -3 -9 -7 -7 -5 1 -7 -1 -5 -5 1 -5 -2 -9 -8 -9 -5 -1 -9 1 -8 5 1 4
-4 8 -11 8 -7 0 -13 -6 -13 -13 0 -7 3 -11 7 -9 4 3 15 -4 25 -15 16 -18 14
-25 -7 -21 -5 0 -7 -5 -5 -11 1 -7 -4 -12 -10 -10 -7 1 -13 -5 -13 -15 0 -14
2 -14 20 2 18 16 25 14 21 -8 -1 -5 3 -6 8 -3 5 4 12 2 15 -3 4 -5 14 -8 24
-6 9 2 19 4 21 4 2 1 -3 9 -11 19 -16 19 -18 61 -3 63 6 1 15 -7 20 -17 6 -11
17 -20 25 -22 11 -3 10 1 -3 16 -12 13 -15 22 -7 27 6 3 9 1 8 -5 -2 -7 5 -14
15 -15 14 -3 16 -1 7 10 -10 11 -8 13 9 10 12 -2 21 1 21 8 0 8 -14 12 -35 12
-22 0 -35 -5 -35 -13 0 -7 -5 -10 -10 -7 -6 4 -7 11 -4 17 4 7 2 8 -4 4 -7 -4
-12 -1 -12 9 0 10 5 13 12 9 7 -4 8 -3 4 5 -6 9 -11 9 -22 0 -8 -6 -14 -9 -14
-5 0 3 0 9 0 13 0 4 11 8 25 9 14 0 25 -4 25 -10 0 -7 15 -12 34 -12 28 0 33
3 24 14 -9 10 -8 12 3 10 8 -2 13 2 12 8 -1 6 4 11 12 11 8 0 13 -5 12 -11 -1
-5 7 -10 18 -10 11 0 19 5 18 10 -1 6 4 11 11 11 6 0 12 -10 12 -22 0 -25 -33
-28 -60 -6 -14 11 -16 11 -16 -3 0 -9 6 -15 13 -13 6 1 11 -4 9 -11 -1 -8 2
-11 8 -7 5 3 11 -2 11 -12 1 -16 2 -16 6 -1 5 18 33 14 33 -5 0 -6 -3 -7 -7
-4 -3 4 -12 2 -20 -4 -17 -15 -18 -43 0 -33 9 6 9 4 -1 -8 -7 -9 -21 -14 -32
-11 -16 4 -20 0 -21 -23 0 -19 -10 -36 -28 -51 -28 -22 -29 -22 -46 -3 -10 11
-22 17 -27 14 -4 -3 -7 0 -6 6 4 18 -30 20 -47 3 -8 -8 -15 -11 -15 -7 0 3 -7
1 -15 -6 -8 -7 -12 -17 -8 -24 14 -21 11 -35 -13 -57 -13 -12 -24 -19 -24 -14
0 5 -14 -4 -32 -21 -17 -16 -27 -22 -23 -14 7 12 6 13 -7 3 -8 -7 -17 -11 -20
-8 -2 3 -5 -2 -5 -10 0 -8 4 -12 9 -9 4 3 8 -2 8 -11 0 -10 5 -13 13 -9 19 12
-14 -27 -47 -56 -17 -14 -37 -25 -46 -24 -10 1 -16 -7 -16 -22 0 -13 2 -21 4
-19 3 2 13 0 23 -5 13 -8 21 -6 31 8 11 16 20 18 45 13 3 0 -1 -9 -10 -19 -14
-15 -14 -19 -3 -19 8 0 14 5 13 11 -1 6 3 10 9 9 6 -1 11 4 11 12 0 8 -4 12
-9 9 -4 -3 -8 0 -8 5 0 6 5 12 10 12 6 1 16 2 23 3 6 1 11 7 9 14 -1 7 4 11
10 10 7 -2 12 2 11 8 -1 6 4 11 12 11 8 0 13 -4 12 -8 -1 -4 3 -7 8 -7 6 0 9
3 8 7 -1 4 13 7 31 7 18 0 33 -5 33 -12 0 -6 -12 -10 -27 -9 -17 1 -27 -3 -27
-11 0 -7 4 -11 9 -8 4 3 8 -3 8 -12 0 -16 1 -16 20 1 11 10 20 14 20 9 0 -5 8
6 16 23 13 25 14 36 5 47 -9 10 -8 16 3 25 10 8 16 9 21 1 8 -13 25 -13 25 1
0 5 -5 7 -10 4 -6 -4 -9 -1 -8 6 2 8 -7 14 -22 14 -34 2 -43 -4 -31 -19 8 -9
4 -19 -13 -35 -16 -15 -26 -19 -31 -12 -3 7 -2 10 3 9 6 -2 10 2 11 7 1 6 -3
11 -9 11 -5 1 -14 2 -20 3 -5 0 -10 6 -10 12 0 5 4 8 8 5 5 -3 9 1 9 9 0 8 -4
12 -9 9 -5 -3 -7 0 -6 7 2 7 -5 13 -14 14 -10 0 -17 -4 -15 -10 1 -5 5 -9 8
-8 3 1 6 -5 6 -13 0 -8 -3 -12 -5 -9 -3 3 -11 0 -18 -6 -8 -7 -14 -7 -19 1 -4
6 -3 10 2 9 22 -4 24 3 7 23 -10 12 -14 18 -7 15 6 -4 14 -3 17 2 5 7 41 8 41
1 0 -1 13 -3 28 -4 20 -2 25 0 17 8 -6 6 -20 11 -30 11 -29 0 -25 19 4 21 14
0 24 -4 23 -10 -1 -5 5 -10 13 -11 8 0 14 -6 13 -13 -2 -7 0 -11 5 -11 4 1 10
0 15 -1 4 -1 17 -3 30 -4 12 0 22 -7 22 -15 0 -8 8 -15 18 -17 15 -2 16 0 5
14 -10 12 -10 14 0 8 7 -4 12 -2 12 7 0 9 -12 13 -37 12 -53 -2 -69 12 -44 39
11 12 20 25 20 31 1 5 12 10 26 11 19 1 22 -2 14 -12 -7 -8 -7 -14 1 -19 8 -5
8 -11 1 -19 -8 -9 -7 -13 3 -13 15 0 15 14 1 37 -6 11 -2 10 12 -3 11 -9 22
-15 25 -12 2 3 5 -2 5 -10 0 -8 -4 -12 -9 -9 -4 3 -8 -3 -8 -12 0 -10 3 -14 7
-11 3 4 12 2 19 -4 9 -8 11 -6 7 9 -3 12 1 19 10 19 17 0 17 -18 -1 -39 -9
-11 -7 -18 11 -33 24 -21 27 -21 36 -6 10 16 91 20 91 5 0 -7 -10 -16 -22 -20
-13 -5 -25 -9 -28 -10 -3 -1 -15 -5 -27 -9 -13 -4 -23 -13 -23 -21 0 -7 -8
-11 -18 -9 -11 2 -19 -3 -19 -10 0 -15 19 -14 40 3 15 13 33 1 37 -23 1 -5 6
-9 11 -7 5 1 9 -2 9 -8 0 -13 -17 -13 -25 1 -5 7 -15 4 -29 -9 -30 -27 -56
-35 -56 -16 0 8 5 12 10 9 6 -3 10 2 10 11 0 15 -4 14 -27 -8 -16 -14 -36 -24
-45 -23 -10 2 -17 0 -17 -3 3 -20 -2 -45 -7 -39 -4 3 -13 0 -20 -8 -36 -36 3
-23 42 14 12 11 25 17 30 13 4 -4 4 -1 0 6 -4 6 -2 12 3 12 6 0 11 -4 11 -9 0
-5 14 -7 30 -6 17 1 30 -1 30 -6 0 -5 -4 -9 -10 -9 -5 0 -10 -5 -10 -11 0 -13
53 -3 94 18 22 11 34 13 47 5 12 -8 20 -7 30 1 11 10 11 9 0 -5 -7 -10 -17
-15 -22 -12 -5 3 -9 -1 -9 -9 0 -16 -37 -35 -62 -31 -10 1 -16 -3 -15 -9 1 -7
-8 -11 -20 -11 -13 1 -23 -3 -23 -7 0 -5 -7 -9 -15 -9 -8 0 -15 4 -15 8 0 5
-7 9 -15 9 -8 0 -15 -3 -15 -7 0 -10 -50 -31 -60 -25 -5 3 -12 0 -16 -6 -4 -8
-3 -9 4 -5 20 12 13 -5 -10 -25 l-23 -20 25 12 c14 6 32 17 40 24 8 7 26 16
40 20 22 7 23 6 8 -8 -9 -9 -22 -18 -29 -19 -7 -2 -20 -11 -29 -20 -8 -10 -27
-19 -41 -21 -15 -1 -34 -9 -43 -16 -9 -7 -16 -12 -17 -10 -6 32 -5 40 4 46 7
5 19 17 27 28 8 10 -7 2 -34 -18 -27 -20 -52 -34 -57 -31 -5 3 -9 -1 -9 -10 0
-8 -7 -13 -15 -12 -23 3 -29 15 -11 22 18 7 22 25 4 22 -7 -2 -12 2 -13 7 0 6
-4 16 -9 24 -6 9 -5 12 1 8 6 -4 13 2 16 13 3 11 1 23 -4 26 -5 3 -9 0 -9 -5
0 -6 -8 -20 -17 -30 -18 -22 -27 -55 -12 -45 6 3 17 3 26 0 14 -6 14 -9 -3
-28 -11 -12 -14 -18 -8 -15 7 4 17 1 23 -7 14 -16 -5 -35 -31 -31 -10 2 -18
-3 -18 -11 0 -8 -8 -17 -17 -21 -10 -3 -24 -11 -32 -17 -18 -14 -41 -16 -41
-4 0 6 6 8 13 5 10 -4 13 2 9 19 -2 13 2 32 9 42 12 15 12 15 -1 5 -8 -6 -24
-13 -35 -15 -11 -1 -23 -6 -26 -11 -11 -15 -48 -15 -61 1 -10 12 -10 14 0 8 8
-4 12 -1 12 10 0 13 -3 14 -15 4 -8 -7 -15 -19 -15 -26 0 -8 -5 -13 -12 -11
-6 1 -17 -8 -23 -20 -7 -13 -16 -20 -21 -15 -4 4 -2 -1 6 -11 11 -15 11 -18 0
-15 -7 2 -19 -7 -25 -19 -18 -35 -46 -63 -63 -63 -9 0 -12 -3 -9 -7 4 -3 -3
-18 -15 -31 -13 -14 -18 -22 -11 -19 7 4 10 1 9 -8 -1 -9 -6 -16 -12 -16 -5 0
-15 -5 -21 -11 -13 -10 -17 -4 -13 17 1 5 -7 3 -17 -6 -23 -19 -69 -19 -65 1
3 10 -3 9 -17 -4 -12 -11 -21 -15 -22 -10 0 5 -5 -2 -10 -16 -12 -29 -12 -30
-1 -30 4 0 7 4 7 9 0 5 3 12 7 16 4 4 6 -7 6 -25 -1 -17 -4 -28 -7 -23 -10 14
-29 13 -42 -3 -7 -8 -8 -14 -3 -13 32 6 41 -15 22 -47 -5 -7 6 -10 32 -9 29 1
40 -2 40 -13 0 -11 -3 -12 -14 -3 -12 10 -14 9 -11 -6 1 -10 -5 -27 -14 -38
-15 -19 -15 -19 4 -5 20 14 20 14 1 -7 -10 -13 -23 -20 -29 -16 -5 3 -7 1 -4
-4 9 -14 -14 -31 -36 -28 -9 2 -15 -1 -11 -6 3 -5 9 -7 14 -4 5 3 11 1 15 -4
7 -13 -45 -3 -62 11 -12 10 -17 4 -14 -14 0 -5 -2 -7 -7 -5 -4 1 -7 -2 -7 -8
0 -5 12 -10 28 -9 17 0 27 -5 27 -13 0 -9 5 -11 13 -7 9 6 9 4 0 -7 -20 -21
-15 -29 16 -29 16 0 31 6 35 15 3 8 10 15 16 15 6 0 8 -6 4 -12 -4 -7 2 -5 14
6 21 18 22 18 33 -10 19 -45 1 -109 -32 -119 -10 -4 -19 -15 -19 -25 0 -13 -5
-17 -20 -13 -14 4 -20 0 -20 -11 0 -11 4 -14 13 -10 9 6 9 5 0 -8 -7 -8 -10
-18 -7 -21 9 -9 75 21 96 43 11 11 25 20 32 20 7 0 23 12 36 27 25 29 43 16
19 -13 -11 -14 -9 -15 18 -11 16 3 40 10 52 16 16 9 21 9 22 -1 0 -10 2 -10 6
0 2 6 9 10 14 6 5 -3 9 7 9 22 0 20 16 41 62 85 35 31 66 56 69 53 4 -2 12 3
19 10 6 8 20 13 32 11 16 -3 18 -2 8 10 -10 12 -8 13 9 10 12 -2 20 1 18 8 -1
7 4 11 11 10 6 -2 12 4 12 14 0 9 3 14 6 10 7 -7 23 9 40 38 6 11 13 18 16 15
3 -3 12 1 21 9 10 7 17 10 17 6 0 -4 7 -2 15 5 8 7 15 9 15 6 0 -4 7 -1 15 8
17 17 20 36 5 36 -5 0 -10 5 -10 12 0 7 7 5 18 -5 15 -13 19 -13 30 -1 7 8 17
12 23 9 5 -4 9 1 9 9 0 8 10 22 22 30 24 17 42 21 34 8 -3 -5 1 -9 9 -9 7 0
18 11 24 24 6 13 16 21 21 18 6 -4 7 -12 3 -18 -3 -7 3 -4 14 6 11 9 22 15 25
12 3 -3 11 2 19 12 9 11 10 14 2 9 -7 -4 -13 -2 -13 3 0 14 13 14 28 -1 9 -9
12 -8 12 4 0 11 7 16 19 13 11 -2 25 3 31 11 7 7 17 11 23 7 5 -3 7 -1 3 5 -3
6 1 17 9 25 8 9 15 25 15 37 0 19 2 20 15 7 20 -20 48 -15 60 10 10 23 55 38
55 19 0 -6 5 -4 10 4 8 13 10 12 10 -2 0 -10 -4 -18 -10 -18 -5 0 -10 -4 -10
-10 0 -6 10 -5 25 2 14 6 25 15 25 19 0 4 8 6 18 5 39 -6 89 42 61 60 -5 3 -9
0 -9 -6 0 -6 -6 -10 -12 -9 -32 4 -48 -2 -49 -18 -1 -16 -2 -16 -6 -2 -3 13
-13 16 -46 13 -23 -2 -49 -7 -57 -11 -26 -11 -35 -9 -46 12 -6 11 -17 19 -24
17 -11 -3 -11 0 -1 12 7 9 17 14 21 11 11 -7 21 22 14 40 -4 8 -1 15 5 15 6 0
11 6 11 14 0 8 7 16 15 20 10 3 15 -1 15 -12 0 -15 2 -15 10 -2 5 8 10 11 10
5 0 -5 5 -3 10 5 6 10 10 11 10 3 0 -15 46 -17 55 -3 10 16 45 12 45 -5 0 -8
5 -15 11 -15 5 0 7 -5 4 -10 -4 -6 -10 -8 -15 -5 -5 3 -12 0 -16 -6 -4 -7 -3
-9 4 -5 6 3 18 -1 26 -10 13 -13 16 -13 16 -1 0 8 7 20 15 27 12 10 15 9 15
-4 0 -10 -4 -14 -10 -11 -5 3 -10 -1 -10 -11 0 -28 30 4 31 35 1 16 3 19 6 9
4 -14 8 -15 29 -6 26 12 32 33 12 41 -10 4 -10 7 0 18 9 9 15 10 20 3 4 -6 21
-11 37 -11 17 0 29 -4 28 -10 -1 -5 20 -9 47 -8 40 1 47 -1 39 -11 -6 -8 -14
-13 -17 -12 -4 1 -17 -1 -29 -6 -25 -8 -30 -53 -6 -53 9 0 10 4 2 13 -7 9 -6
12 8 10 10 -2 21 1 24 7 11 16 69 17 69 0 0 -8 5 -11 10 -8 6 4 8 11 4 16 -3
5 0 8 8 7 7 -2 12 2 11 8 -1 6 4 11 12 11 8 0 13 -3 12 -6 -1 -3 3 -6 8 -6 5
0 9 4 7 10 -2 5 0 7 4 2 4 -4 16 1 27 10 11 10 17 13 14 6 -9 -15 9 -27 18
-13 5 8 11 8 20 0 9 -8 15 -8 20 0 3 6 12 7 18 3 19 -12 37 -12 34 0 -1 6 8
11 20 12 12 0 32 10 45 22 l24 23 0 -24 c0 -15 -6 -23 -15 -22 -9 1 -16 -3
-16 -9 0 -5 3 -9 7 -8 5 2 7 -3 5 -10 -1 -6 4 -11 11 -9 8 1 11 -2 7 -8 -5 -8
-13 -6 -24 4 -10 9 -21 13 -26 9 -4 -5 -5 -2 0 6 6 10 4 12 -5 6 -9 -6 -11 -4
-5 6 5 8 4 11 0 6 -5 -4 -11 -20 -13 -35 -2 -15 0 -23 4 -19 4 4 16 -1 26 -10
15 -13 19 -14 16 -3 -2 9 5 14 18 15 11 0 28 6 37 14 15 12 17 11 17 -3 0 -10
-4 -14 -10 -11 -5 3 -10 -1 -10 -10 0 -9 -4 -13 -10 -10 -5 3 -10 0 -10 -8 0
-7 7 -14 15 -14 8 0 15 6 15 12 0 8 12 12 30 10 25 -2 28 0 19 11 -6 8 -15 12
-18 9 -4 -2 -8 2 -8 9 0 7 6 13 13 13 7 0 12 -5 11 -10 -1 -5 6 -11 16 -12 15
-3 16 -1 6 11 -10 12 -10 15 2 12 8 -2 17 -10 21 -18 5 -12 7 -12 7 2 1 12 8
16 22 13 18 -4 19 -2 8 13 -7 9 -9 14 -4 9 4 -4 16 0 25 8 14 13 17 13 17 0 0
-8 -5 -11 -11 -8 -6 4 -5 0 2 -9 7 -9 22 -15 33 -13 11 2 19 -2 19 -9 0 -7 7
-13 15 -13 8 0 12 4 9 8 -2 4 0 10 6 14 6 4 10 -9 11 -32 1 -38 1 -38 9 -8 4
17 8 22 9 12 0 -10 6 -15 11 -12 6 3 10 -1 10 -10 0 -9 -4 -13 -10 -10 -5 3
-10 -1 -10 -10 0 -9 5 -13 10 -10 6 4 10 -8 10 -30 0 -22 4 -34 10 -30 6 3 11
-2 11 -12 1 -10 5 -4 9 12 4 17 8 22 9 12 0 -10 6 -15 11 -12 6 3 10 -1 10
-10 0 -9 -4 -13 -10 -10 -6 4 -9 -9 -9 -32 2 -34 2 -35 7 -8 4 26 5 28 12 10
6 -15 8 -10 8 20 -1 63 4 102 9 82 2 -9 9 -15 14 -11 5 3 8 0 7 -8 -2 -7 3
-12 10 -10 6 1 12 -5 12 -14 0 -8 5 -12 10 -9 6 3 10 -1 10 -10 0 -9 -4 -13
-10 -10 -6 4 -10 -8 -10 -30 0 -20 4 -34 9 -31 5 3 8 14 6 24 -1 9 0 11 2 4 3
-7 8 -10 12 -8 4 3 8 -1 8 -9 0 -8 -4 -12 -9 -9 -4 3 -8 -2 -8 -11 0 -9 5 -13
10 -10 6 3 10 -2 10 -11 0 -16 -1 -16 -20 1 -19 17 -20 17 -20 1 0 -9 5 -14
10 -11 6 3 10 -1 10 -10 0 -9 4 -13 10 -10 5 3 10 -1 10 -10 0 -9 5 -13 10
-10 6 4 8 10 6 14 -3 4 1 8 9 8 8 0 15 -7 15 -14 0 -8 4 -12 8 -9 5 3 9 -1 9
-9 0 -8 -4 -12 -9 -9 -4 3 -8 -2 -8 -11 0 -9 5 -13 10 -10 6 4 9 1 8 -7 -2 -7
2 -12 7 -11 6 1 11 -13 11 -31 0 -19 -5 -33 -13 -33 -6 0 -11 3 -10 6 1 3 -2
6 -8 6 -5 0 -9 -3 -7 -8 1 -4 -4 -6 -10 -5 -7 2 -12 -3 -10 -10 1 -8 -2 -11
-8 -7 -5 3 -10 0 -10 -8 0 -7 -7 -14 -15 -14 -13 0 -13 3 1 18 10 11 12 19 4
24 -6 4 -9 1 -8 -7 2 -7 -3 -12 -9 -10 -11 2 -18 -28 -15 -59 1 -3 -5 -6 -13
-6 -8 0 -12 4 -9 8 2 4 0 10 -6 14 -6 4 -10 -8 -10 -30 0 -22 -4 -34 -10 -30
-5 3 -10 -2 -10 -11 0 -10 -3 -14 -7 -11 -3 4 0 18 7 32 7 14 10 28 7 32 -4 3
-7 -1 -7 -11 0 -9 -4 -14 -10 -11 -6 4 -10 -9 -11 -32 -1 -38 -1 -38 -9 -8 -4
17 -8 22 -9 12 0 -10 -5 -15 -11 -12 -6 4 -10 -23 -11 -72 -1 -57 -3 -70 -9
-48 -6 22 -8 25 -10 10 -2 -15 -4 -12 -10 10 -6 25 -8 20 -10 -30 -2 -50 -4
-55 -10 -30 -4 17 -8 22 -9 12 0 -10 -5 -15 -11 -12 -6 4 -10 -8 -10 -30 0
-22 -4 -34 -10 -30 -5 3 -10 -1 -10 -10 0 -9 5 -13 10 -10 6 3 10 -1 10 -10 0
-9 4 -14 8 -11 5 3 7 24 6 48 -1 24 0 35 3 25 2 -9 9 -15 14 -12 5 4 9 -1 9
-10 0 -9 -4 -13 -10 -10 -5 3 -10 -1 -10 -10 0 -9 4 -14 8 -11 5 3 9 -1 9 -9
0 -8 -3 -13 -6 -12 -3 1 -6 -2 -6 -8 0 -5 3 -9 6 -8 3 1 6 -4 6 -12 0 -8 -3
-13 -6 -12 -3 1 -6 -2 -6 -8 0 -5 3 -9 6 -8 3 1 6 -5 6 -13 0 -7 -3 -12 -5 -9
-3 3 -12 -1 -20 -8 -8 -6 -25 -12 -36 -12 -13 -1 -20 -6 -18 -15 2 -8 0 -12
-4 -7 -9 8 -46 -22 -39 -33 2 -4 -8 -6 -23 -5 -15 1 -26 6 -25 12 1 5 -4 10
-11 10 -15 0 -15 -14 -2 -36 6 -9 5 -12 -1 -8 -6 4 -20 -4 -32 -16 -18 -20
-31 -23 -80 -22 -37 1 -59 -3 -58 -9 1 -6 -4 -10 -11 -8 -8 1 -11 -2 -7 -8 5
-8 13 -6 25 5 12 11 20 13 25 5 4 -6 1 -9 -7 -8 -7 2 -12 -4 -10 -12 2 -8 0
-12 -4 -7 -4 4 -16 -1 -27 -10 -11 -10 -17 -13 -14 -6 4 6 3 14 -3 18 -5 3
-10 -1 -10 -10 0 -9 -5 -13 -10 -10 -6 4 -8 10 -6 14 3 4 -1 8 -9 8 -8 0 -13
-5 -12 -11 1 -6 -4 -10 -11 -8 -8 1 -11 -2 -7 -8 3 -6 10 -8 15 -5 5 3 12 1
15 -5 4 -6 1 -9 -7 -8 -7 2 -12 -2 -11 -8 1 -6 -4 -11 -12 -11 -8 0 -12 4 -9
8 2 4 0 10 -6 14 -6 4 -8 10 -6 14 3 4 -1 8 -9 8 -8 0 -13 -5 -12 -11 1 -6 -4
-10 -10 -8 -7 1 -13 -5 -13 -15 0 -15 1 -15 18 0 15 14 19 14 19 3 0 -8 -5
-14 -11 -13 -6 1 -10 -4 -8 -11 1 -6 -4 -11 -10 -10 -7 2 -11 -4 -10 -12 2 -8
0 -12 -4 -7 -4 4 -16 -1 -26 -10 -15 -14 -19 -14 -16 -3 2 9 -3 14 -11 12 -12
-3 -12 0 -2 12 7 8 11 21 8 28 -3 8 -6 6 -6 -5 -1 -10 -5 -15 -11 -12 -5 3
-10 -1 -10 -10 0 -10 -5 -13 -12 -9 -7 5 -8 3 -2 -7 13 -22 13 -36 -2 -36 -7
0 -11 4 -8 8 2 4 0 10 -6 14 -5 3 -10 -1 -10 -10 0 -9 -5 -13 -10 -10 -6 4 -8
10 -6 14 3 4 -1 8 -8 8 -7 0 -13 -6 -13 -13 0 -7 3 -11 7 -9 4 2 7 -2 7 -9 0
-7 -6 -13 -13 -13 -7 0 -11 4 -8 8 2 4 0 10 -6 14 -5 3 -10 -1 -10 -10 0 -9
-4 -13 -10 -10 -5 3 -10 0 -10 -8 0 -7 -7 -14 -15 -14 -8 0 -12 4 -9 8 2 4 0
11 -6 14 -6 4 -9 1 -8 -7 2 -8 -6 -13 -20 -12 -17 1 -20 -2 -12 -11 8 -10 3
-12 -20 -10 -21 2 -30 -2 -30 -12 0 -8 -4 -11 -10 -8 -5 3 -10 -2 -11 -12 0
-16 -1 -16 -9 2 -7 16 -9 17 -9 3 -1 -11 -8 -16 -21 -13 -12 2 -20 -2 -20 -9
0 -7 -7 -13 -15 -13 -8 0 -12 4 -9 8 2 4 0 11 -6 14 -6 4 -10 3 -9 -2 1 -4 1
-15 0 -23 -1 -13 -2 -13 -11 0 -8 13 -10 12 -10 -3 0 -10 -4 -15 -10 -12 -5 3
-10 1 -10 -5 0 -8 -6 -8 -20 0 -16 9 -20 8 -20 -6 0 -15 -2 -15 -22 2 -12 10
-18 14 -15 7 11 -19 -19 -41 -53 -38 -17 1 -30 -2 -30 -9 0 -7 -3 -7 -8 -1
-10 14 -32 17 -32 5 0 -7 -6 -7 -20 0 -15 8 -20 8 -20 -2 0 -9 -13 -13 -40
-12 -22 0 -40 -2 -40 -6 0 -7 -10 -9 -55 -13 -14 -1 -25 -5 -25 -10 0 -10 -23
-4 -32 8 -5 6 -8 4 -8 -5 0 -12 -11 -15 -47 -15 -27 0 -51 -4 -55 -10 -5 -6
-8 -4 -8 5 0 13 -1 13 -10 0 -7 -11 -10 -12 -10 -2 0 10 -4 9 -16 -3 -10 -9
-25 -14 -35 -12 -12 3 -19 0 -19 -10 0 -8 -4 -11 -10 -8 -5 3 -10 0 -10 -7 0
-10 -2 -10 -9 0 -4 8 -12 14 -16 14 -4 0 -12 -6 -16 -14 -5 -7 -9 -8 -9 -2 0
14 -30 14 -30 0 0 -6 -5 -4 -10 4 -9 13 -10 13 -10 0 0 -13 -1 -13 -10 0 -8
13 -10 12 -10 -4 0 -11 -3 -16 -6 -13 -4 3 -15 2 -25 -3 -12 -7 -19 -6 -22 3
-3 7 -6 5 -6 -5 -1 -11 -8 -16 -21 -13 -12 2 -20 -2 -20 -10 0 -8 -8 -12 -20
-10 -14 3 -20 -2 -20 -13 0 -10 -3 -13 -8 -7 -10 14 -32 17 -32 4 0 -5 -4 -7
-10 -4 -5 3 -10 0 -10 -7 0 -9 -3 -9 -10 2 -7 11 -10 11 -10 2 0 -7 -4 -10
-10 -7 -5 3 -10 1 -10 -5 0 -6 -4 -8 -10 -5 -5 3 -10 0 -10 -7 0 -8 -3 -9 -8
-3 -10 13 -32 17 -32 6 0 -6 5 -13 10 -16 6 -3 10 -12 10 -18 0 -7 -4 -6 -10
3 -8 12 -10 10 -10 -8 0 -13 4 -20 10 -17 5 3 10 -1 10 -10 0 -9 -4 -13 -10
-10 -5 3 -10 0 -10 -8 0 -22 30 -30 31 -9 1 11 4 8 9 -8 4 -14 8 -20 9 -14 1
12 31 15 31 3 0 -4 9 -6 20 -4 11 2 20 -2 20 -8 0 -8 3 -8 9 1 11 19 24 17 32
-5 7 -16 8 -16 8 -1 1 11 8 16 21 13 11 -2 20 2 20 8 0 7 4 6 10 -3 8 -13 10
-12 10 3 0 10 4 16 9 12 5 -3 12 -1 16 5 3 5 15 10 26 10 11 0 38 9 59 20 22
11 51 21 65 22 14 1 25 5 25 8 0 6 44 11 115 14 22 0 43 6 47 11 5 6 8 4 8 -5
0 -12 2 -12 9 -2 4 7 24 14 44 15 21 1 37 5 37 8 0 3 6 6 13 6 22 1 41 8 55
21 8 7 18 10 23 7 5 -4 9 0 10 7 0 10 2 10 6 1 3 -10 8 -10 19 1 7 8 22 13 31
12 10 -2 21 1 24 6 3 5 12 10 20 12 32 5 59 18 59 27 0 6 5 7 10 4 6 -3 10 -1
10 5 0 6 5 8 10 5 6 -3 10 -1 10 4 0 6 9 11 20 11 11 0 20 6 20 13 0 8 4 7 10
-3 8 -13 10 -13 10 1 0 12 9 15 40 14 21 -1 37 2 34 7 -3 4 1 8 8 9 49 4 65 7
83 16 11 6 24 11 28 11 4 0 20 4 35 10 50 19 127 41 162 47 69 11 96 17 140
32 25 8 52 16 62 18 9 2 30 11 47 19 17 9 31 14 31 10 0 -4 6 -2 13 4 6 5 30
13 52 16 22 3 57 10 78 15 20 5 37 7 37 5 0 -3 14 2 30 11 17 9 30 13 30 11 0
-3 18 1 40 9 22 8 40 12 40 8 0 -3 6 0 14 6 10 9 16 9 21 1 5 -8 13 -6 27 7
15 13 19 14 16 3 -2 -8 3 -14 10 -12 6 1 12 -5 12 -14 0 -8 5 -12 10 -9 6 3
10 -1 10 -9 0 -9 -7 -13 -20 -11 -13 2 -20 -2 -20 -11 0 -8 -4 -12 -10 -9 -5
3 -10 1 -10 -4 0 -6 -9 -11 -21 -11 -11 0 -18 4 -15 8 3 5 -1 9 -9 9 -8 0 -15
-6 -15 -14 0 -7 5 -13 10 -13 6 0 10 -5 10 -11 0 -5 -4 -7 -10 -4 -5 3 -10 -1
-10 -10 0 -9 -5 -13 -10 -10 -6 4 -8 11 -5 16 3 5 -1 6 -9 3 -9 -3 -16 -16
-17 -28 0 -20 -1 -20 -9 -1 -6 13 -9 15 -9 5 -1 -13 -2 -13 -11 0 -8 12 -10
10 -11 -10 0 -23 -1 -23 -9 -5 -5 11 -9 14 -9 7 -1 -7 -5 -10 -11 -7 -5 3 -10
0 -10 -8 0 -7 -7 -14 -15 -14 -10 0 -12 4 -5 12 7 8 5 12 -5 12 -8 0 -13 -3
-11 -6 2 -3 0 -15 -5 -26 l-8 -20 0 20 c-1 17 -3 17 -11 5 -5 -8 -10 -10 -10
-4 0 6 -6 11 -13 11 -8 0 -14 -6 -14 -13 0 -7 4 -11 9 -8 4 3 8 1 8 -4 0 -18
-30 -22 -31 -4 -1 16 -2 16 -6 -1 -2 -9 -9 -15 -14 -12 -5 4 -9 1 -9 -6 0 -7
-3 -9 -6 -6 -4 4 -1 13 6 22 17 20 5 32 -15 15 -8 -7 -15 -9 -15 -6 0 4 -7 0
-16 -8 -8 -9 -20 -14 -25 -10 -5 3 -8 2 -7 -3 2 -4 -1 -9 -7 -11 -5 -2 -19
-11 -29 -20 -11 -9 -16 -12 -13 -5 4 6 3 14 -3 18 -9 5 -15 -15 -11 -38 1 -5
-3 -6 -8 -3 -5 3 -14 -1 -21 -9 -13 -16 -35 -10 -24 6 3 5 9 7 14 4 4 -3 13 1
18 8 9 10 6 13 -13 13 -13 0 -23 -5 -22 -10 1 -6 -4 -10 -11 -8 -6 1 -11 -4
-10 -10 2 -7 -2 -12 -8 -11 -6 1 -11 -5 -11 -13 0 -11 4 -11 21 3 17 14 16 13
-2 -9 -21 -23 -64 -34 -52 -12 3 5 8 8 11 7 3 -1 6 5 6 13 0 12 -3 12 -17 -1
-9 -8 -19 -13 -22 -10 -2 3 -5 -2 -5 -10 0 -8 4 -12 8 -10 3 3 12 -2 18 -9 10
-12 9 -14 -6 -11 -10 1 -23 -2 -30 -7 -7 -5 -14 -5 -18 2 -3 6 -11 8 -16 4 -5
-3 -6 -11 -2 -17 4 -8 1 -7 -9 1 -13 10 -18 10 -24 1 -5 -8 -3 -10 7 -4 8 5
11 4 6 0 -8 -9 -39 -17 -74 -18 -12 -1 -19 -5 -17 -9 3 -4 -1 -8 -8 -9 -32 -2
-53 -9 -79 -28 -16 -12 -32 -21 -37 -21 -5 0 -15 -6 -21 -14 -9 -11 -9 -16 0
-22 7 -4 10 -3 7 2 -4 5 16 9 43 9 27 1 49 -3 49 -8 0 -4 -4 -6 -9 -2 -5 3
-12 1 -15 -4 -3 -5 -15 -7 -26 -4 -11 3 -28 2 -37 -2 -10 -3 -20 -6 -23 -6 -3
0 -14 -8 -24 -17 -11 -9 -16 -12 -13 -5 4 6 3 15 -3 18 -6 4 -9 1 -8 -7 2 -7
-3 -12 -9 -10 -18 3 -16 -3 4 -19 15 -12 16 -12 8 1 -8 13 -6 13 8 1 17 -13
14 -36 -4 -26 -5 4 -9 -5 -9 -19 0 -17 -5 -23 -17 -22 -12 2 -20 -5 -23 -22
-5 -24 -6 -25 -22 -8 -13 12 -18 14 -18 4 0 -8 -3 -9 -8 -3 -13 20 -37 11 -36
-13 1 -19 -3 -23 -17 -19 -14 4 -19 0 -19 -16 0 -18 -2 -19 -10 -7 -8 12 -10
12 -11 -5 0 -15 -2 -16 -7 -5 -9 20 -32 24 -32 4 0 -8 -4 -13 -9 -9 -12 7 -17
-21 -13 -63 4 -31 6 -32 36 -27 17 4 40 7 51 9 11 1 35 6 54 10 35 8 86 13
185 17 45 2 60 6 63 19 4 13 13 15 51 10 60 -8 87 -23 109 -60 9 -17 21 -30
26 -30 4 0 5 -5 2 -10 -3 -5 1 -10 9 -10 9 0 16 -5 16 -10 0 -6 3 -9 8 -9 21
4 32 -3 33 -18 1 -17 2 -17 6 0 2 9 9 15 14 12 5 -4 9 0 9 7 0 8 10 14 23 14
13 0 24 -6 24 -13 0 -6 -4 -10 -9 -7 -4 3 -8 -3 -8 -12 0 -10 3 -14 6 -11 4 3
15 2 25 -4 12 -6 19 -6 19 0 0 5 9 7 20 4 14 -4 20 0 20 11 0 10 5 14 10 11 6
-3 10 1 10 10 0 9 4 14 8 11 5 -3 9 1 9 9 0 7 -8 12 -17 10 -9 -2 -17 2 -17 9
0 7 16 12 42 12 36 0 41 -3 43 -24 1 -16 -2 -21 -11 -16 -9 5 -9 4 1 -7 6 -7
12 -21 12 -31 0 -10 4 -18 8 -18 14 0 10 -29 -5 -34 -11 -5 -17 4 -15 24 0 3
-24 5 -54 5 -30 0 -54 -3 -54 -8 0 -4 -9 -3 -20 3 -16 9 -20 8 -20 -6 0 -9 9
-18 20 -21 11 -3 20 -10 20 -16 0 -6 3 -7 6 -4 7 6 59 -19 79 -38 6 -5 10 -17
10 -25 -2 -24 7 -33 16 -19 7 11 9 11 9 1 0 -7 5 -10 10 -7 6 3 10 0 10 -7 0
-9 3 -9 10 2 8 13 10 12 10 -3 0 -10 4 -16 9 -12 5 3 15 0 23 -7 16 -15 39
-22 36 -11 -2 5 2 10 7 12 28 12 54 68 29 64 -6 -1 -11 13 -11 31 0 21 5 33
14 33 7 0 13 -7 13 -14 0 -8 4 -12 9 -9 5 3 8 14 6 24 -1 9 0 11 2 4 3 -7 9
-10 14 -7 5 4 9 -1 9 -10 0 -9 -4 -13 -10 -10 -5 3 -10 -1 -10 -10 0 -9 -4
-13 -10 -10 -5 3 -10 0 -10 -8 0 -7 7 -14 15 -14 8 0 12 4 9 8 -2 4 0 10 6 14
5 3 10 0 10 -8 0 -7 7 -14 15 -14 11 0 12 4 3 14 -6 7 -8 16 -4 20 3 3 6 1 6
-6 0 -7 5 -9 10 -6 6 3 10 -2 10 -11 0 -10 3 -14 7 -11 3 4 1 17 -6 30 -7 13
-11 30 -9 38 2 7 -2 13 -8 12 -6 -1 -11 4 -11 11 0 8 7 13 16 11 9 -1 15 -8
13 -14 -1 -6 1 -10 5 -9 5 2 8 -1 8 -7 0 -5 -3 -9 -7 -7 -5 1 -8 -4 -8 -11 0
-8 7 -14 14 -14 8 0 14 3 13 6 -1 3 3 6 8 6 6 0 9 -3 8 -6 -1 -3 4 -6 12 -6 8
0 13 3 12 6 -1 3 3 7 8 8 6 1 9 -10 8 -26 -2 -18 2 -28 11 -28 7 0 13 9 12 20
-1 12 6 21 16 23 10 1 16 -3 15 -9 -1 -6 5 -11 13 -12 8 -1 14 -6 13 -11 -1
-6 4 -11 11 -11 6 0 13 10 14 21 1 17 -1 18 -8 6 -9 -14 -14 -7 -11 13 0 4 -2
7 -6 6 -5 -1 -18 2 -30 6 -12 4 -24 6 -26 4 -2 -2 -11 4 -21 14 -10 9 -22 15
-27 12 -5 -4 -9 0 -9 7 0 9 -3 9 -10 -2 -9 -14 -15 -6 -10 15 1 5 -1 7 -5 3
-4 -4 -16 2 -28 13 -11 10 -27 19 -34 19 -21 0 -27 3 -41 17 -8 7 -18 11 -23
8 -5 -4 -9 0 -10 7 0 10 -2 10 -6 0 -2 -6 -8 -10 -12 -8 -4 3 -8 -1 -8 -9 0
-8 4 -12 9 -9 4 3 8 -1 8 -9 0 -7 -6 -14 -13 -14 -16 0 -21 43 -6 52 7 5 4 14
-7 26 -11 12 -14 24 -9 36 5 10 8 21 7 25 -1 4 8 5 19 3 16 -3 18 -1 10 9 -9
11 -5 13 19 11 19 -2 30 2 30 11 0 8 8 11 21 9 16 -3 18 -1 10 9 -9 10 -3 13
27 11 34 -1 39 1 38 19 -1 12 -5 26 -8 32 -4 6 -1 11 7 11 8 0 15 -7 15 -15 0
-12 4 -11 21 4 13 11 19 13 17 5 -2 -7 5 -15 15 -16 9 -2 15 1 11 6 -5 9 0 10
54 13 15 1 32 5 39 9 7 4 31 10 53 12 22 2 46 8 53 12 7 4 21 9 31 10 11 2 25
8 33 14 7 6 13 9 13 5 0 -4 14 0 30 9 17 9 30 13 30 10 0 -3 9 -1 21 5 11 6
30 13 41 15 11 3 30 11 42 18 11 8 24 14 27 13 4 -1 15 7 26 16 51 46 162 90
201 79 1 -1 5 -1 10 -1 4 0 30 -24 59 -52 38 -38 50 -55 42 -64 -7 -8 -6 -15
2 -20 8 -5 9 -3 4 6 -5 8 -4 11 3 7 5 -4 8 -16 5 -27 -4 -14 -1 -20 7 -18 8 2
19 -7 25 -19 7 -13 15 -20 18 -16 4 3 7 -1 7 -11 0 -9 5 -14 10 -11 6 3 10 -1
10 -10 0 -9 5 -13 10 -10 6 3 10 -1 10 -10 0 -9 5 -13 10 -10 6 3 10 -1 10
-10 0 -10 5 -13 13 -9 8 6 8 3 -1 -9 -12 -14 -11 -16 7 -12 14 2 21 -1 21 -11
0 -8 5 -12 10 -9 6 3 10 -1 10 -10 0 -9 4 -13 10 -10 6 3 10 -1 10 -10 0 -9 4
-13 10 -10 6 3 10 -2 10 -12 0 -15 2 -16 10 -3 8 12 10 10 10 -8 0 -13 4 -20
10 -17 6 4 8 11 5 16 -3 5 1 6 9 3 9 -3 16 -10 16 -16 0 -5 -4 -6 -10 -3 -5 3
-10 -1 -10 -10 0 -9 4 -13 10 -10 6 3 10 0 10 -8 0 -7 7 -14 15 -14 11 0 12 4
4 13 -6 7 -9 19 -6 26 3 8 6 6 6 -5 1 -10 6 -15 11 -12 6 3 10 -5 10 -19 0
-19 4 -24 20 -21 13 2 20 -2 20 -11 0 -9 5 -12 12 -8 7 5 8 3 2 -7 -13 -22
-13 -36 2 -36 7 0 11 4 8 8 -2 4 0 10 6 14 6 4 10 -8 10 -30 0 -22 4 -34 10
-30 6 3 11 -2 11 -12 1 -10 5 -4 9 12 6 25 8 20 9 -28 0 -32 -3 -56 -7 -53 -5
3 -9 -1 -9 -9 0 -8 4 -12 9 -9 4 3 8 -2 8 -11 0 -9 5 -13 10 -10 6 3 10 -1 10
-10 0 -9 -4 -14 -8 -11 -5 3 -9 -1 -9 -9 0 -8 4 -12 9 -9 4 3 8 -2 8 -11 0 -9
-4 -14 -9 -10 -5 3 -13 1 -16 -5 -5 -8 -11 -7 -21 1 -12 10 -15 10 -12 -2 2
-11 -16 -13 -97 -12 -55 0 -128 3 -162 6 -35 3 -63 3 -63 0 0 -10 28 -32 34
-26 3 4 6 -1 6 -11 0 -9 -5 -14 -10 -11 -6 4 -9 1 -8 -7 2 -7 -2 -12 -9 -11
-6 1 -10 -5 -9 -15 2 -9 9 -17 16 -17 7 0 14 -7 15 -16 2 -9 -3 -16 -11 -16
-7 0 -12 5 -11 11 1 6 -4 10 -10 9 -7 -2 -12 0 -10 5 1 4 -3 7 -8 7 -5 0 -9
-3 -8 -7 2 -5 -3 -7 -10 -5 -6 1 -11 -5 -9 -13 3 -12 1 -12 -15 1 -10 9 -30
15 -45 14 -15 -1 -25 2 -22 6 2 4 0 10 -6 14 -6 4 -8 10 -6 14 3 4 -1 8 -8 8
-7 0 -13 -6 -13 -13 0 -7 3 -11 7 -9 4 2 7 -2 7 -10 0 -8 -5 -13 -11 -12 -6 1
-10 -3 -9 -9 1 -6 -4 -11 -12 -11 -8 0 -13 3 -12 6 1 3 -3 6 -8 6 -6 0 -9 -3
-8 -6 1 -3 -4 -6 -12 -6 -8 0 -12 4 -9 8 2 4 0 10 -6 14 -6 4 -8 11 -4 16 8
14 26 0 18 -14 -5 -9 -3 -8 6 0 10 9 17 10 27 2 7 -7 13 -9 13 -5 0 3 0 9 0
14 0 4 -10 7 -22 7 -13 1 -22 6 -21 11 1 6 -4 11 -12 11 -8 0 -13 -3 -12 -6 1
-3 -2 -6 -8 -6 -5 0 -9 3 -8 6 1 3 -4 6 -12 6 -8 0 -13 -3 -12 -6 1 -3 -3 -6
-8 -6 -5 0 -9 3 -8 6 1 3 -4 6 -12 6 -8 0 -13 -5 -12 -11 1 -6 -4 -10 -10 -9
-7 2 -12 0 -10 -5 1 -4 -2 -7 -8 -7 -5 0 -9 3 -8 6 1 3 -4 6 -12 6 -8 0 -13
-5 -12 -11 1 -5 -10 -10 -25 -11 -16 0 -27 5 -26 10 2 6 7 9 12 7 5 -2 4 4 -4
12 -15 19 -21 20 -17 4 1 -7 -4 -12 -11 -10 -9 2 -11 -2 -6 -10 13 -21 13 -35
0 -35 -13 0 -15 34 -4 53 4 6 1 11 -7 11 -8 0 -15 -6 -15 -12 0 -6 -7 -12 -15
-12 -10 0 -12 4 -5 12 6 7 -1 11 -26 11 -23 0 -34 -5 -34 -14 0 -11 3 -12 14
-3 10 8 16 9 21 1 4 -6 1 -9 -7 -8 -7 2 -12 -3 -11 -9 2 -7 0 -12 -5 -10 -4 1
-7 -3 -7 -8 0 -5 3 -9 7 -8 5 2 7 -3 5 -10 -1 -6 4 -11 10 -10 7 2 12 0 10 -5
-1 -4 2 -7 8 -7 5 0 9 3 8 6 -1 3 4 6 12 6 8 0 13 -3 12 -6 -1 -3 2 -6 8 -6 5
0 9 3 8 6 -1 3 4 6 12 6 8 0 13 -3 12 -6 -1 -3 3 -6 8 -6 6 0 9 3 8 6 -1 3 4
6 11 6 7 0 13 -6 13 -13 0 -7 -3 -12 -6 -11 -3 1 -6 -3 -6 -8 0 -6 3 -9 6 -8
3 1 6 -5 6 -13 0 -12 -3 -12 -16 -1 -9 8 -28 13 -43 12 -15 -1 -27 1 -26 4 2
18 -4 22 -16 12 -10 -8 -16 -9 -21 -1 -3 6 -11 8 -16 4 -5 -3 -8 -2 -7 3 2 4
-1 8 -7 8 -5 0 -9 -3 -8 -6 1 -3 -4 -6 -12 -6 -8 0 -12 4 -9 8 2 4 0 10 -5 13
-5 4 -13 2 -16 -4 -5 -8 -11 -7 -21 1 -8 6 -14 8 -14 4 0 -4 -7 -2 -15 5 -8 7
-15 9 -15 5 0 -4 -7 -2 -15 5 -10 9 -15 9 -15 1 0 -17 -43 -6 -46 12 -1 9 3
15 9 14 7 -1 11 3 10 10 -2 7 6 10 18 8 16 -3 18 -1 10 9 -8 9 -7 13 4 13 8 0
15 -6 15 -12 0 -6 7 -12 15 -12 8 0 12 4 9 8 -2 4 0 10 6 14 6 4 9 -9 7 -34
-3 -32 -1 -38 10 -30 7 6 11 15 8 18 -2 4 2 8 10 8 8 0 15 -7 15 -14 0 -8 5
-11 10 -8 6 4 8 11 4 16 -3 5 -2 8 3 7 4 -2 8 2 8 7 0 6 -4 9 -9 7 -5 -2 -3 4
4 13 7 9 9 15 4 13 -5 -2 -9 1 -9 7 0 5 3 9 6 8 3 -1 6 4 6 11 0 7 -6 13 -14
13 -7 0 -13 -7 -13 -14 0 -8 -4 -11 -10 -8 -5 3 -10 -1 -10 -10 0 -9 5 -13 10
-10 6 3 10 0 10 -8 0 -7 -6 -14 -13 -14 -15 0 -20 36 -7 52 7 8 5 12 -5 12 -8
0 -15 -7 -15 -14 0 -8 -4 -11 -10 -8 -5 3 -10 -1 -10 -10 0 -9 -5 -13 -10 -10
-6 4 -7 12 -4 18 4 7 4 9 -1 5 -13 -12 -35 12 -36 41 0 23 -1 24 -9 6 l-9 -20
0 20 c-1 17 -3 17 -11 5 -9 -13 -10 -13 -11 0 0 10 -3 8 -9 -5 -8 -18 -9 -18
-9 -2 -1 10 -5 15 -11 12 -5 -3 -10 2 -11 12 0 16 -1 16 -9 -2 l-9 -20 -1 20
c-1 15 -3 17 -8 5 -4 -8 -13 -16 -21 -18 -12 -3 -12 0 -2 12 7 8 11 21 8 28
-4 8 -6 7 -6 -5 -1 -20 -23 -18 -33 3 -5 12 -7 11 -7 -3 -1 -10 -5 -15 -11
-12 -5 3 -10 -1 -10 -10 0 -9 -4 -13 -10 -10 -5 3 -10 -1 -10 -10 0 -9 3 -14
8 -11 4 2 12 -6 18 -18 8 -17 7 -23 -2 -23 -7 0 -11 4 -8 8 2 4 0 10 -6 14 -5
3 -10 -1 -10 -10 0 -9 -4 -13 -10 -10 -5 3 -10 0 -10 -7 0 -9 -3 -9 -10 2 -9
14 -14 7 -11 -13 1 -5 -3 -6 -9 -2 -6 3 -7 12 -3 18 4 7 0 7 -10 -1 -14 -12
-16 -11 -12 5 2 12 -2 20 -10 20 -8 0 -11 -5 -8 -10 4 -6 1 -7 -8 -1 -8 5 -18
9 -24 9 -5 1 -9 6 -8 12 1 6 -8 10 -20 9 -13 -1 -21 4 -19 12 1 6 -4 11 -10
10 -7 -2 -12 3 -10 10 1 6 -4 11 -10 10 -7 -2 -12 2 -11 9 2 7 -6 10 -17 8
-11 -2 -26 2 -33 8 -7 7 -19 13 -27 15 -8 2 -18 9 -22 15 -5 8 -8 6 -8 -6 0
-10 -4 -15 -10 -12 -5 3 -10 0 -10 -8 0 -16 -61 -18 -72 -2 -5 6 -12 5 -20 -4
-11 -12 -10 -13 2 -7 8 4 -1 -6 -20 -24 -19 -17 -47 -36 -62 -42 -16 -5 -29
-16 -29 -24 -1 -8 -2 -20 -3 -26 -4 -21 6 -31 15 -17 6 10 8 5 5 -13 -6 -34 2
-35 51 -6 l38 22 -19 -22 c-11 -12 -25 -22 -33 -22 -7 0 -13 -2 -13 -4 0 -2
-3 -13 -7 -23 -6 -16 -4 -16 18 2 13 11 39 31 58 44 34 24 34 24 28 2 -5 -22
16 -31 28 -11 4 6 10 8 15 5 4 -3 13 2 20 10 7 8 16 13 20 10 5 -3 11 -1 15 5
3 5 11 10 17 10 19 0 -34 -40 -104 -78 -37 -20 -72 -47 -77 -60 -10 -21 -9
-22 10 -12 11 6 30 13 42 15 22 4 22 4 2 -13 -40 -35 -57 -60 -45 -67 6 -4 9
-1 8 7 -2 7 3 12 10 10 8 -1 11 2 8 7 -4 5 -2 12 4 16 5 3 10 -1 10 -9 0 -29
18 -25 67 14 46 36 78 45 52 13 -6 -7 -8 -13 -4 -13 4 0 1 -8 -6 -17 -11 -16
-11 -16 1 -5 8 7 15 18 15 25 0 7 5 12 10 12 6 0 17 5 25 10 8 5 26 11 39 13
14 2 34 8 45 13 24 12 -19 -31 -74 -72 -34 -26 -34 -26 -8 -25 15 1 36 10 48
21 18 16 20 16 14 2 -7 -21 9 -22 25 -3 7 8 21 12 32 9 15 -4 17 -8 8 -19 -9
-11 -8 -14 5 -14 9 0 19 7 23 16 3 8 12 13 19 10 8 -3 14 0 14 6 0 6 3 8 7 5
3 -4 -4 -19 -18 -33 l-24 -27 35 18 c19 10 38 22 41 27 9 14 59 -2 53 -17 -3
-7 2 -15 10 -18 9 -4 16 -1 16 6 0 9 3 8 9 -1 4 -8 12 -14 17 -15 5 -1 8 -5 7
-9 -5 -13 4 -9 18 9 10 11 10 14 2 9 -7 -4 -13 -3 -13 2 0 17 29 22 32 5 3
-14 5 -14 18 2 9 11 10 16 3 11 -9 -5 -13 -1 -13 10 0 10 3 14 7 11 3 -4 12
-2 20 5 11 9 13 8 11 -2 -2 -8 3 -15 10 -16 6 -1 15 -2 18 -3 4 0 1 -8 -6 -16
-7 -8 -16 -13 -19 -10 -4 2 -8 -2 -8 -10 0 -13 4 -12 19 2 11 9 18 11 18 5 0
-7 3 -11 8 -11 20 3 32 -2 29 -13 -1 -7 4 -12 11 -10 8 1 11 -2 8 -6 -3 -5 2
-19 12 -30 9 -12 26 -32 37 -45 11 -14 23 -23 28 -20 4 2 7 -2 7 -9 0 -9 3 -9
10 2 8 12 10 11 10 -6 0 -12 7 -24 15 -28 8 -3 14 -2 14 2 -1 4 0 16 1 27 2
15 4 12 10 -10 l8 -30 1 28 c1 20 5 26 14 21 8 -6 8 -3 -1 9 -8 9 -12 22 -9
29 3 8 6 5 7 -7 2 -14 5 -11 10 10 7 29 8 29 10 -10 2 -39 3 -39 10 -10 5 21
8 24 10 10 l1 -20 9 20 c7 17 9 16 9 -9 1 -16 4 -27 7 -23 8 7 34 -17 34 -32
0 -6 7 -11 15 -11 10 0 15 9 14 28 0 24 -1 25 -9 7 -7 -15 -9 -8 -8 26 1 34 5
46 15 42 7 -3 13 -10 13 -17 0 -6 4 -5 9 3 11 18 31 5 31 -20 0 -17 11 -24 33
-20 4 0 7 -11 8 -27 0 -24 1 -25 9 -7 8 18 9 18 9 2 1 -10 6 -15 11 -12 6 3
10 -1 10 -10 0 -9 3 -14 8 -11 9 6 57 -20 57 -31 0 -4 3 -7 8 -6 4 2 7 -3 7
-10 0 -8 11 -19 25 -25 17 -8 25 -8 25 -1 0 6 5 7 10 4 6 -3 10 -2 10 4 0 5 9
8 21 6 18 -4 19 -2 7 12 -9 12 -9 15 0 9 8 -5 12 2 12 25 0 24 -9 43 -32 67
-18 18 -26 32 -18 30 8 -2 18 -10 22 -18 6 -13 7 -13 7 1 2 31 31 17 32 -15 1
-24 2 -27 7 -11 10 28 32 30 32 2 0 -12 4 -17 8 -12 12 16 32 16 32 -1 0 -8 5
-12 10 -9 6 4 8 11 5 16 -3 5 1 6 9 3 9 -3 16 -10 16 -16 0 -5 5 -6 10 -3 6 3
10 -2 10 -11 0 -10 3 -15 6 -11 8 8 54 -38 54 -54 0 -7 3 -10 6 -6 7 7 34 -17
34 -31 0 -5 7 -9 15 -9 11 0 12 4 4 13 -6 7 -9 19 -6 26 3 8 6 6 6 -5 1 -10 5
-15 11 -12 6 3 10 -1 10 -10 0 -9 5 -13 10 -10 6 4 9 1 8 -7 -2 -7 2 -12 9
-11 6 1 11 -12 11 -32 0 -19 -4 -32 -9 -29 -5 3 -7 9 -5 13 3 4 -1 8 -9 8 -8
0 -15 -7 -15 -14 0 -8 5 -11 10 -8 6 3 10 -1 10 -10 0 -9 4 -13 10 -10 6 3 10
-1 10 -9 0 -9 -6 -15 -12 -13 -7 1 -12 -4 -10 -11 1 -8 -2 -11 -8 -7 -5 3 -10
-1 -10 -9 0 -9 -6 -15 -12 -13 -7 1 -12 -4 -11 -10 2 -7 -3 -12 -10 -10 -6 1
-11 -4 -9 -12 3 -12 0 -12 -12 -2 -8 7 -17 25 -19 39 -3 23 -4 22 -6 -8 -3
-33 -4 -33 -11 -10 -6 18 -8 20 -9 7 -1 -10 -5 -15 -11 -12 -5 3 -10 -1 -10
-9 0 -20 -23 -16 -32 4 -5 12 -7 11 -7 -3 -1 -10 -5 -15 -11 -12 -5 3 -11 -2
-11 -12 -1 -10 -5 -4 -9 12 -5 18 -8 22 -9 11 -1 -18 -2 -18 -21 -1 -20 18
-20 17 -20 -10 0 -22 -4 -26 -20 -22 -13 3 -20 0 -20 -9 0 -18 -23 -14 -32 6
-5 12 -7 11 -7 -3 -1 -10 -5 -15 -11 -12 -5 3 -10 1 -10 -6 0 -7 -3 -9 -6 -6
-4 4 -2 13 4 20 9 10 8 14 -3 14 -8 0 -15 -9 -15 -21 0 -17 -2 -18 -10 -6 -8
12 -10 12 -11 -5 l0 -20 -9 20 c-8 18 -9 18 -10 -5 l-2 -25 -8 25 c-6 18 -8
20 -9 7 -1 -10 -5 -15 -11 -12 -5 3 -10 -1 -10 -10 0 -9 -5 -13 -10 -10 -6 4
-8 10 -6 14 3 4 -1 8 -9 8 -8 0 -15 -7 -15 -14 0 -8 -4 -11 -10 -8 -5 3 -10 0
-11 -7 -1 -7 -5 -2 -9 12 -6 18 -8 20 -9 7 -1 -11 -5 -15 -13 -11 -8 5 -9 2
-5 -9 3 -10 2 -17 -3 -17 -6 0 -10 12 -11 28 0 24 -1 25 -9 7 l-9 -20 0 20
c-1 17 -3 17 -11 5 -9 -13 -10 -13 -11 0 -1 8 -5 -3 -9 -25 l-7 -40 -2 37 c-1
37 -16 47 -33 23 -5 -6 -8 -6 -8 1 0 6 -7 11 -15 11 -10 0 -15 -11 -16 -36 -1
-20 -3 -28 -6 -17 -4 15 -7 16 -14 5 -7 -12 -9 -12 -10 1 0 10 -3 8 -9 -5 -7
-17 -9 -16 -10 10 -1 26 -3 27 -10 10 -7 -17 -9 -16 -11 10 l-2 30 -7 -35 c-6
-30 -8 -31 -10 -10 -1 14 -2 34 -2 45 l1 20 -6 -20 -6 -20 -8 20 c-6 15 -8 9
-10 -25 -1 -30 -3 -36 -6 -18 -2 14 -11 29 -19 32 -10 4 -14 -4 -15 -32 -1
-37 -1 -37 -9 -7 -6 22 -8 25 -10 10 -2 -15 -4 -12 -10 10 -6 24 -8 17 -8 -30
0 -44 2 -53 8 -35 4 14 8 19 9 12 1 -7 6 -10 11 -7 6 3 10 0 10 -7 0 -8 3 -9
8 -3 12 16 32 16 32 -1 0 -8 5 -12 10 -9 8 5 15 -31 11 -57 0 -5 5 -7 12 -5 6
1 11 -3 10 -9 -1 -6 5 -11 13 -11 11 0 9 6 -7 23 -13 14 -19 31 -16 46 4 20 4
20 6 -5 0 -16 5 -26 11 -22 6 4 9 1 8 -6 -4 -16 24 -19 34 -4 5 6 8 4 9 -5 0
-8 5 -4 9 10 7 22 8 23 9 4 1 -19 -22 -49 -38 -49 -3 0 -5 -4 -3 -9 2 -5 -3
-4 -12 3 -8 6 -17 8 -19 4 -3 -5 -42 -9 -87 -8 -45 1 -84 -3 -87 -8 -2 -4 -11
-3 -18 3 -9 7 -15 6 -23 -3 -11 -13 -72 -14 -92 -2 -5 3 -11 2 -13 -3 -6 -9
-949 -7 -1332 3 -143 3 -381 8 -530 10 -235 3 -302 7 -312 15 -2 2 -16 3 -32
4 -16 0 -33 5 -38 10 -5 5 -2 6 6 1 10 -6 12 -4 7 4 -6 9 -11 9 -21 1 -9 -8
-15 -8 -20 0 -3 6 -12 7 -18 3 -7 -4 -7 0 1 10 12 14 11 16 -8 12 -18 -3 -20
-2 -10 10 9 11 7 13 -7 10 -10 -1 -17 -9 -15 -16 2 -9 -3 -8 -16 4 -10 9 -22
14 -26 10 -4 -5 -6 -1 -4 7 2 8 -2 14 -8 13 -6 -1 -11 4 -11 12 0 8 4 12 9 9
4 -3 8 2 8 11 0 9 -4 14 -8 11 -4 -2 -8 7 -9 22 -2 24 -1 24 7 7 8 -18 9 -17
7 7 -1 20 -6 25 -20 22 -16 -3 -17 -1 -5 13 9 12 9 15 1 9 -9 -5 -13 1 -13 19
0 18 -4 24 -12 19 -8 -5 -7 0 2 11 9 11 10 16 3 11 -9 -5 -13 1 -13 19 0 18
-4 24 -12 19 -8 -5 -7 0 2 11 8 10 10 16 3 12 -6 -4 -15 -2 -20 5 -10 17 -13
39 -4 33 4 -2 8 2 8 10 0 7 -8 12 -18 10 -10 -2 -18 -1 -18 3 4 25 -2 62 -9
58 -5 -3 -9 1 -9 9 0 8 4 12 9 9 4 -3 8 2 8 11 0 10 -5 13 -12 9 -8 -5 -7 0 2
11 9 11 10 16 2 11 -8 -5 -12 1 -12 19 0 18 -4 24 -12 19 -9 -6 -9 -3 0 9 12
14 11 16 -8 12 -18 -3 -20 -2 -10 10 10 12 8 13 -7 10 -12 -2 -20 2 -20 10 0
8 4 12 9 9 4 -3 8 2 8 11 0 10 -5 13 -13 9 -8 -6 -8 -3 1 9 8 9 12 22 9 29 -4
9 -6 8 -6 -3 -1 -19 -28 -21 -28 -3 0 7 4 11 9 8 4 -3 8 2 8 11 0 10 -5 13
-12 9 -8 -5 -7 0 2 11 9 11 10 16 3 11 -8 -4 -13 -1 -13 9 0 9 4 14 8 11 5 -3
9 1 9 9 0 8 -4 12 -9 9 -4 -3 -8 7 -9 23 0 22 -2 24 -8 10 -7 -18 -8 -18 -21
-1 -9 11 -10 15 -2 10 16 -10 16 16 0 33 -10 11 -10 13 0 7 7 -5 12 -1 12 9 0
9 -4 14 -8 11 -5 -3 -9 10 -9 29 0 19 4 32 9 29 4 -3 8 2 8 11 0 9 -4 14 -8
11 -5 -3 -9 10 -9 29 0 19 4 32 9 29 4 -3 8 2 8 11 0 10 -5 13 -12 9 -8 -5 -7
0 2 11 9 11 10 16 3 11 -9 -5 -13 1 -14 21 0 25 -1 26 -9 8 -8 -18 -9 -18 -9
6 -1 14 -7 31 -13 38 -10 11 -10 13 -1 7 8 -5 13 -1 13 9 0 9 -4 14 -8 11 -5
-3 -9 1 -9 9 0 8 4 12 9 9 4 -3 8 2 8 11 0 9 -4 14 -8 11 -5 -3 -9 1 -9 9 0 8
3 12 7 10 4 -2 7 2 7 10 0 8 -4 12 -9 9 -7 -4 -12 17 -9 38 0 4 -9 5 -20 3
-18 -4 -19 -2 -7 12 9 12 9 15 1 9 -8 -4 -13 -1 -13 9 0 9 4 14 8 11 5 -3 9 1
9 9 0 8 -8 12 -20 10 -16 -4 -17 -2 -5 12 9 12 9 15 1 9 -8 -4 -13 -1 -13 9 0
9 4 14 8 11 4 -2 8 7 9 22 1 17 -1 21 -5 12 -9 -20 -29 -23 -29 -5 0 8 4 12 9
9 4 -3 8 2 8 11 0 10 -5 13 -12 9 -9 -6 -9 -3 0 9 12 14 11 16 -8 12 -19 -4
-20 -2 -8 12 7 9 8 14 2 10 -13 -8 -37 16 -27 27 16 15 10 34 -8 31 -13 -3
-17 0 -12 8 4 7 8 22 9 34 1 16 -4 20 -18 18 -16 -4 -18 -2 -8 10 7 8 16 13
19 10 4 -2 8 2 8 10 0 7 -8 12 -17 10 -9 -2 -17 3 -17 10 0 8 4 12 9 9 4 -3 8
2 8 11 0 10 -5 13 -12 9 -8 -5 -7 0 2 11 8 10 10 16 3 12 -6 -4 -15 -2 -20 5
-11 19 -13 39 -2 32 5 -3 7 -9 5 -13 -3 -4 2 -8 10 -8 11 0 9 6 -7 23 -12 13
-27 20 -33 17 -6 -4 -4 2 4 12 9 11 10 16 2 11 -8 -5 -12 1 -12 19 0 14 -4 24
-9 21 -10 -7 -9 20 2 30 4 4 3 12 -3 18 -5 7 -13 27 -17 46 -10 42 -8 1807 2
1935 4 50 7 100 8 112 1 12 5 19 9 17 4 -3 8 2 8 11 0 10 5 13 12 9 9 -6 9 -3
0 9 -12 14 -11 16 8 12 18 -3 20 -2 10 10 -10 12 -8 13 10 10 19 -4 20 -2 8
12 -9 12 -9 15 0 9 7 -4 12 -1 12 9 0 9 -4 14 -8 11 -5 -3 -9 1 -9 9 0 18 20
15 29 -5 4 -10 7 -7 7 10 1 20 3 22 11 10 5 -8 10 -10 11 -5 0 6 4 1 9 -10 8
-18 9 -18 9 5 1 14 5 20 9 14 4 -6 19 -10 35 -9 15 1 27 -3 27 -10 0 -6 7 -12
15 -12 10 0 12 4 5 12 -7 8 -5 12 5 12 8 0 15 -6 15 -14 0 -15 21 -13 32 2 6
8 12 -21 10 -46 -1 -3 5 -6 12 -6 6 0 13 12 13 26 2 23 1 24 -7 6 -8 -18 -9
-17 -9 7 -1 30 19 35 31 8 4 -10 7 -7 7 10 1 20 3 22 11 10 8 -13 10 -12 11 5
1 14 4 10 9 -10 l8 -30 2 30 c1 26 3 27 10 10 l9 -20 1 20 c2 14 5 11 10 -10
7 -28 8 -28 9 -5 1 20 3 22 11 10 7 -12 10 -8 11 15 0 26 2 27 9 10 8 -18 9
-18 9 -2 1 10 6 15 11 12 6 -3 11 2 11 12 1 10 5 5 9 -12 l8 -30 2 30 c1 26 3
27 10 10 8 -17 9 -16 11 10 2 27 3 26 9 -10 6 -36 7 -37 9 -10 2 26 3 27 11
10 7 -17 9 -16 10 10 1 26 3 27 10 10 6 -15 9 -16 9 -4 1 19 31 21 31 2 0 -8
5 -11 10 -8 6 3 10 -2 11 -12 0 -11 3 -13 6 -5 3 7 -1 19 -7 28 -7 8 -10 17
-6 21 3 3 6 1 6 -6 0 -7 5 -9 10 -6 6 3 10 -2 11 -12 1 -13 3 -11 9 7 4 14 8
19 9 12 1 -7 6 -10 11 -7 6 3 10 -2 11 -12 0 -14 2 -15 7 -3 9 20 32 24 32 4
0 -8 -4 -12 -10 -9 -5 3 -10 1 -10 -4 0 -6 5 -11 10 -11 6 0 11 -8 11 -17 1
-10 5 -4 9 12 6 22 8 25 10 10 2 -15 4 -12 10 10 8 30 8 30 9 -8 1 -23 5 -36
11 -32 6 3 10 -1 10 -10 0 -9 -4 -13 -10 -10 -5 3 -10 0 -10 -8 0 -7 6 -14 13
-14 9 0 13 17 15 50 2 69 12 73 12 5 0 -41 4 -55 14 -55 8 0 15 3 14 6 0 3 1
17 2 31 2 21 4 20 10 -10 7 -32 7 -33 9 -7 1 20 5 26 14 21 7 -5 7 -2 -2 10
-12 15 -12 17 0 14 8 -2 17 -10 21 -18 5 -12 7 -11 7 3 1 10 6 15 11 12 6 -3
10 2 11 12 0 16 1 16 9 -2 8 -18 9 -18 9 -2 1 10 6 15 11 12 6 -3 10 2 11 12
0 16 1 16 9 -2 8 -18 9 -18 9 5 1 18 4 21 10 11 7 -11 10 -10 14 5 3 13 5 10
7 -11 2 -30 2 -30 10 -5 4 14 9 18 10 10 1 -11 4 -9 10 5 l9 20 0 -20 c1 -17
3 -17 11 -5 9 13 10 13 11 0 0 -10 3 -8 9 5 8 18 9 17 9 -8 1 -16 -3 -26 -9
-22 -16 10 -12 -1 6 -15 12 -11 15 -11 12 1 -2 8 3 13 11 11 11 -2 12 0 3 11
-9 11 -1 13 48 12 43 -1 57 2 50 10 -7 8 0 11 23 11 18 -1 31 4 30 10 -1 6 4
11 11 11 7 0 13 -6 13 -13z m40 -39 c0 -6 -6 -12 -12 -12 -6 0 -12 6 -12 12 0
6 6 12 12 12 6 0 12 -6 12 -12z m-540 -27 c-3 -8 -6 -5 -6 6 -1 11 2 17 5 13
3 -3 4 -12 1 -19z m583 -4 c0 -8 -19 -13 -24 -6 -3 5 1 9 9 9 8 0 15 -2 15 -3z
m-543 -36 c-3 -8 -6 -5 -6 6 -1 11 2 17 5 13 3 -3 4 -12 1 -19z m460 -32 c-1
-19 -5 -34 -8 -33 -4 1 -7 -2 -8 -8 -1 -5 3 -10 9 -10 5 0 14 -5 21 -12 17
-17 -14 -11 -35 6 -12 10 -13 17 -6 26 8 9 8 15 0 20 -8 5 -6 13 6 26 23 25
23 25 21 -15z m212 -82 c-12 -15 -39 -8 -39 11 0 18 22 25 38 12 9 -7 9 -13 1
-23z m-232 -46 c-3 -8 -6 -5 -6 6 -1 11 2 17 5 13 3 -3 4 -12 1 -19z m68 -19
c-4 -5 -13 -9 -22 -9 -13 0 -13 3 -3 15 13 15 35 11 25 -6z m115 15 c0 -8 -19
-13 -24 -6 -3 5 1 9 9 9 8 0 15 -2 15 -3z m120 -15 c0 -5 6 -7 13 -3 6 4 4 -2
-7 -14 -10 -12 -22 -19 -26 -17 -4 2 -16 -5 -26 -16 -16 -18 -16 -19 -1 -13 9
3 17 11 17 16 0 6 6 5 15 -2 20 -17 19 -32 -2 -28 -10 2 -18 -3 -18 -9 0 -7
-4 -13 -10 -12 -5 1 -9 4 -8 8 1 4 -4 8 -12 8 -8 0 -12 -4 -9 -8 2 -4 0 -10
-6 -14 -5 -3 -10 1 -10 9 0 26 -1 30 -10 41 -12 14 5 40 19 31 6 -4 8 -12 5
-18 -4 -7 -2 -8 5 -4 9 6 9 11 0 22 -9 11 -8 15 2 18 8 2 21 7 29 9 25 9 40 7
40 -4z m65 -39 c-4 -6 -11 -8 -16 -4 -5 3 -8 0 -7 -6 2 -7 -5 -14 -14 -15 -20
-4 -25 21 -5 28 22 9 48 7 42 -3z m75 -78 c0 -13 -12 -22 -22 -16 -10 6 -1 24
13 24 5 0 9 -4 9 -8z m97 -34 c-3 -8 -6 -5 -6 6 -1 11 2 17 5 13 3 -3 4 -12 1
-19z m-122 -27 c-2 -9 -4 -17 -5 -18 -2 -2 -3 -7 -4 -13 0 -5 -5 -10 -10 -9
-5 0 -13 -5 -17 -13 -6 -9 -9 -7 -9 10 0 12 3 21 8 20 4 -2 8 2 9 7 0 6 -3 9
-8 8 -5 -2 -9 3 -9 10 0 7 11 13 24 13 16 0 23 -5 21 -15z m95 -1 c-20 -13
-43 -13 -35 0 3 6 16 10 28 10 18 0 19 -2 7 -10z m-690 -33 c0 -8 -7 -14 -15
-14 -11 0 -12 4 -4 14 6 7 13 13 15 13 2 0 4 -6 4 -13z m726 -9 c-6 -10 -12
-14 -14 -8 -4 12 -32 13 -32 1 0 -5 -7 -11 -15 -15 -10 -3 -15 1 -15 11 0 9 3
14 6 10 4 -3 12 0 19 6 7 7 24 13 38 13 21 0 23 -2 13 -18z m-206 -13 c0 -6
-11 -11 -25 -11 -14 0 -25 5 -25 11 0 5 11 10 25 10 14 0 25 -5 25 -10z m-573
-10 c0 -8 -4 -12 -9 -9 -5 3 -6 10 -3 15 9 13 12 11 12 -6z m756 -31 c-1 -5 3
-14 8 -21 8 -8 4 -10 -12 -6 -14 4 -20 2 -16 -4 8 -12 -20 -39 -30 -29 -4 3
-1 12 5 18 7 7 12 19 12 28 0 13 -1 13 -10 0 -5 -8 -10 -10 -10 -4 0 16 20 32
38 30 10 -2 16 -7 15 -12z m-266 -26 c-3 -8 -6 -5 -6 6 -1 11 2 17 5 13 3 -3
4 -12 1 -19z m203 -43 c0 -8 -7 -15 -15 -15 -26 0 -18 20 13 29 1 1 2 -6 2
-14z m157 -7 c-3 -8 -6 -5 -6 6 -1 11 2 17 5 13 3 -3 4 -12 1 -19z m194 -32
c5 3 9 -3 9 -12 0 -14 3 -15 12 -6 7 7 17 12 22 12 6 0 0 -7 -12 -16 -12 -8
-22 -22 -22 -31 0 -13 3 -13 15 -3 15 12 54 5 41 -7 -16 -16 -59 -10 -63 8 -3
10 -9 16 -13 14 -5 -3 -8 9 -8 27 1 18 3 27 5 20 3 -6 9 -10 14 -6z m-71 -16
c0 -5 -2 -10 -4 -10 -3 0 -8 5 -11 10 -3 6 -1 10 4 10 6 0 11 -4 11 -10z
m-430 -19 c-9 -17 -60 -22 -60 -5 0 15 17 22 47 21 16 -1 19 -5 13 -16z m464
-12 c-8 -13 -24 -1 -24 18 0 13 3 13 15 3 8 -7 12 -16 9 -21z m-77 -11 c-3 -8
-6 -5 -6 6 -1 11 2 17 5 13 3 -3 4 -12 1 -19z m-127 -8 c-8 -5 -17 -7 -19 -4
-3 3 1 9 9 14 8 5 17 7 19 4 3 -3 -1 -9 -9 -14z m-190 -25 c0 -8 -4 -15 -10
-15 -5 0 -7 7 -4 15 4 8 8 15 10 15 2 0 4 -7 4 -15z m997 -7 c-3 -8 -6 -5 -6
6 -1 11 2 17 5 13 3 -3 4 -12 1 -19z m120 8 c-1 -6 4 -10 11 -8 6 1 12 -5 12
-14 0 -12 -4 -14 -12 -7 -7 6 -21 9 -31 8 -14 -3 -15 0 -8 9 6 7 9 15 6 18 -3
2 2 5 9 5 8 0 14 -5 13 -11z m-1507 -20 c0 -2 -7 -9 -15 -16 -13 -11 -14 -10
-9 4 5 14 24 23 24 12z m1235 -18 c4 -3 2 -9 -3 -12 -5 -3 -15 1 -21 8 -10 11
-9 14 3 12 9 -1 18 -5 21 -8z m-1021 -17 c3 -5 -3 -11 -14 -14 -13 -3 -20 0
-20 9 0 15 26 19 34 5z m-224 -10 c0 -11 -19 -24 -37 -27 -7 -1 -13 4 -13 12
0 9 5 12 10 9 6 -3 10 -1 10 4 0 6 7 11 15 11 8 0 15 -4 15 -9z m403 -6 c-3
-9 -8 -14 -10 -11 -3 3 -2 9 2 15 9 16 15 13 8 -4z m1237 -10 c0 -6 -6 -12
-13 -12 -8 0 -14 6 -14 12 0 6 6 12 14 12 7 0 13 -6 13 -12z m37 0 c0 -6 -6
-12 -12 -12 -6 0 -12 6 -12 12 0 6 6 12 12 12 6 0 12 -6 12 -12z m-1997 -31
c0 -8 -19 -13 -24 -6 -3 5 1 9 9 9 8 0 15 -2 15 -3z m405 -4 c3 -5 1 -10 -4
-10 -6 0 -11 5 -11 10 0 6 2 10 4 10 3 0 8 -4 11 -10z m1555 -7 c0 -8 -4 -12
-9 -8 -5 3 -12 -3 -14 -12 -3 -10 -4 -7 -4 8 1 26 27 37 27 12z m517 2 c0 -6
-6 -12 -12 -12 -6 0 -12 6 -12 12 0 6 6 12 12 12 6 0 12 -6 12 -12z m-500 -27
c-3 -8 -6 -5 -6 6 -1 11 2 17 5 13 3 -3 4 -12 1 -19z m540 -13 c0 -6 -6 -12
-12 -12 -6 0 -12 6 -12 12 0 6 6 12 12 12 6 0 12 -6 12 -12z m80 2 c0 -8 -6
-14 -14 -14 -9 0 -10 4 -2 14 6 7 12 13 14 13 1 0 2 -6 2 -13z m-520 -49 c-3
-8 -6 -5 -6 6 -1 11 2 17 5 13 3 -3 4 -12 1 -19z m-1957 -28 c0 -5 -5 -10 -11
-10 -5 0 -7 5 -4 10 3 6 8 10 11 10 2 0 4 -4 4 -10z m117 -12 c-3 -8 -6 -5 -6
6 -1 11 2 17 5 13 3 -3 4 -12 1 -19z m2280 7 c0 -6 -6 -12 -12 -12 -6 0 -12 6
-12 12 0 6 6 12 12 12 6 0 12 -6 12 -12z m40 0 c0 -6 -6 -12 -12 -12 -6 0 -12
6 -12 12 0 6 6 12 12 12 6 0 12 -6 12 -12z m-2213 -9 c-9 -24 -34 -28 -34 -6
0 13 7 20 20 20 13 0 17 -5 14 -14z m173 -8 c-3 -8 -6 -5 -6 6 -1 11 2 17 5
13 3 -3 4 -12 1 -19z m156 1 c-8 -8 -13 -7 -18 2 -5 8 -4 10 3 5 7 -4 12 -2
12 5 0 7 3 9 7 6 4 -4 2 -12 -4 -18z m-496 -3 c0 -8 -5 -14 -11 -13 -6 1 -10
-3 -9 -9 1 -6 -5 -11 -13 -11 -10 0 -9 7 8 24 25 27 25 27 25 9z m1940 -21 c0
-6 -6 -12 -12 -12 -6 0 -12 6 -12 12 0 6 6 12 12 12 6 0 12 -6 12 -12z m440
-1 c0 -7 -4 -12 -8 -11 -4 1 -7 -2 -7 -8 0 -5 3 -9 7 -8 4 1 8 -4 8 -11 0 -7
-6 -13 -13 -13 -7 0 -12 5 -11 11 1 6 -3 10 -9 9 -6 -1 -11 4 -11 12 0 8 5 13
11 12 6 -1 10 3 9 9 -1 6 4 11 11 11 7 0 13 -6 13 -13z m-2602 -34 c-26 -27
-26 -35 -2 -31 4 0 7 -6 7 -15 0 -8 -4 -13 -8 -10 -5 3 -22 -8 -37 -24 -15
-16 -33 -27 -38 -23 -6 4 -7 1 -2 -7 4 -7 2 -16 -5 -20 -15 -9 -17 -60 -2 -69
6 -4 5 -11 -4 -19 -9 -8 -14 -9 -14 -2 0 6 -4 8 -10 5 -5 -3 -10 -1 -10 4 0 6
5 11 10 11 6 0 10 7 10 15 0 8 -3 14 -8 13 -4 -2 -7 2 -7 7 0 6 3 9 7 8 5 -2
8 4 8 12 0 8 -6 15 -13 15 -19 0 -89 -75 -80 -85 5 -4 2 -5 -4 -1 -12 7 -18
-10 -14 -40 1 -7 -5 -14 -12 -17 -8 -3 -13 3 -13 18 0 13 4 21 8 19 4 -3 8 12
8 32 0 21 3 35 6 31 3 -3 17 5 31 19 13 13 28 24 33 24 6 0 10 9 10 20 0 11
-4 20 -10 20 -5 0 -10 9 -10 21 0 13 -4 18 -12 13 -7 -4 -8 -3 -4 5 5 7 12 9
19 3 7 -5 24 -8 40 -7 15 1 33 -5 40 -13 10 -13 9 -14 -3 -7 -13 8 -13 6 -1
-8 14 -18 36 -13 25 5 -4 6 -2 8 3 5 12 -8 46 27 36 36 -3 4 -13 1 -22 -6 -14
-10 -14 -10 -4 4 7 9 9 19 5 23 -4 4 0 6 8 4 9 -2 14 3 12 12 -2 8 -1 12 3 8
4 -4 14 -1 22 7 28 29 26 15 -2 -15z m505 18 c0 -4 -4 -8 -10 -8 -5 0 -11 -10
-11 -22 -1 -17 -2 -19 -6 -5 -4 15 -29 23 -57 18 -5 -1 -4 4 2 12 12 15 82 19
82 5z m2137 -23 c0 -6 -6 -12 -12 -12 -6 0 -12 6 -12 12 0 6 6 12 12 12 6 0
12 -6 12 -12z m-2548 -22 c-6 -7 -15 -10 -20 -7 -13 8 -3 21 15 21 12 0 13 -4
5 -14z m-297 -21 c10 -10 8 -14 -10 -18 -12 -4 -19 -10 -16 -15 3 -5 -1 -9 -9
-9 -9 0 -12 9 -9 29 4 30 22 35 44 13z m2965 5 c0 -8 -6 -14 -14 -14 -9 0 -10
4 -2 14 6 7 12 13 14 13 1 0 2 -6 2 -13z m-100 -21 c-1 -6 4 -10 11 -8 6 1 11
-2 10 -7 -2 -5 2 -8 7 -7 6 0 9 4 8 7 -1 3 5 6 13 6 8 0 14 -7 14 -14 0 -8 -4
-12 -9 -8 -5 3 -13 0 -18 -7 -12 -21 -12 -35 3 -35 7 0 11 4 8 8 -2 4 0 10 6
14 9 6 13 -6 13 -46 0 -9 6 -16 13 -16 7 0 11 4 8 8 -2 4 0 10 6 14 6 4 8 11
4 16 -3 5 -9 7 -13 5 -4 -3 -8 10 -8 28 0 20 5 33 13 33 7 0 12 -5 11 -11 -1
-6 3 -10 9 -9 6 1 11 -4 11 -12 0 -8 -4 -12 -9 -9 -4 3 -8 -2 -8 -11 0 -9 4
-14 8 -11 5 3 9 -1 9 -9 0 -8 -4 -12 -9 -9 -4 3 -9 -11 -9 -30 -2 -52 -2 -53
-21 -76 -10 -11 -18 -25 -18 -31 0 -5 -4 -7 -10 -4 -5 3 -10 -1 -10 -10 0 -9
-4 -14 -8 -11 -5 3 -9 -1 -9 -9 0 -8 4 -12 9 -9 4 3 8 -2 8 -11 0 -9 5 -13 10
-10 6 3 10 -1 10 -10 0 -9 5 -13 10 -10 6 3 10 -1 10 -10 0 -9 -4 -13 -10 -10
-6 4 -10 -6 -10 -22 -1 -18 -9 -34 -26 -46 -16 -12 -24 -14 -22 -5 2 7 -3 12
-11 10 -12 -3 -12 0 -1 12 8 11 9 16 1 16 -6 0 -11 5 -11 11 0 5 4 8 8 5 4 -2
8 11 8 29 0 18 -3 33 -6 32 -3 -1 -5 3 -5 8 0 6 3 9 6 8 3 -1 6 4 6 12 0 8 -3
14 -6 13 -19 -2 -22 4 -10 18 17 20 20 61 4 61 -6 0 -11 -12 -11 -26 1 -14 -3
-27 -9 -27 -5 -1 -9 1 -8 5 1 4 -4 8 -11 8 -7 0 -13 -6 -13 -13 0 -7 4 -12 8
-11 4 1 7 -2 7 -8 0 -5 -3 -9 -7 -8 -4 1 -8 -4 -8 -12 0 -8 5 -13 11 -12 6 1
10 -4 9 -10 -2 -7 2 -12 9 -10 11 2 13 -6 9 -49 0 -8 -5 -13 -9 -10 -5 3 -9
-1 -9 -9 0 -8 4 -12 9 -9 12 8 9 -9 -6 -28 -7 -10 -16 -15 -19 -11 -4 3 -7 2
-7 -4 0 -6 -7 -14 -16 -17 -14 -5 -15 -4 -5 8 11 13 9 15 -9 11 -18 -3 -20 -2
-10 10 7 8 16 13 19 10 4 -2 8 2 8 10 0 8 -4 12 -9 9 -4 -3 -8 2 -8 11 0 10 5
13 13 9 8 -6 8 -3 -1 9 -12 14 -11 16 5 12 12 -2 20 2 20 10 0 8 -8 12 -20 10
-15 -3 -17 -2 -7 10 10 12 8 13 -7 10 -12 -2 -20 2 -20 10 0 7 8 12 17 10 9
-2 17 3 17 10 0 7 -8 12 -17 10 -13 -3 -17 4 -17 28 1 18 -4 31 -9 30 -6 -1
-11 4 -11 12 0 8 5 13 11 12 6 -1 10 9 9 23 -2 20 -1 21 5 7 4 -10 12 -19 17
-19 6 0 9 -4 8 -9 -2 -5 3 -8 10 -6 6 1 11 -3 10 -9 -1 -6 4 -11 11 -11 7 0
13 6 13 13 0 7 -5 12 -11 11 -6 -1 -10 4 -8 11 1 6 -4 11 -10 10 -8 -2 -13 6
-12 19 1 13 -2 21 -5 19 -4 -3 -7 11 -7 29 0 18 3 33 6 32 3 -1 6 3 7 8 0 6
-2 9 -6 8 -4 -1 -8 4 -8 11 0 7 6 13 14 13 7 0 13 -7 13 -14 0 -8 5 -11 10 -8
6 4 8 11 4 16 -3 5 0 8 8 7 7 -2 12 2 11 8 -1 6 4 11 12 11 8 0 13 -5 12 -11z
m181 -11 c1 -12 -4 -22 -11 -22 -7 0 -13 10 -13 22 0 12 5 22 11 22 6 0 12
-10 13 -22z m39 -10 c0 -6 -6 -12 -12 -12 -6 0 -12 6 -12 12 0 6 6 12 12 12 6
0 12 -6 12 -12z m-26 -49 c5 3 7 9 5 13 -3 4 1 8 8 8 7 0 13 -6 13 -13 0 -7
-5 -12 -11 -11 -6 1 -10 -4 -8 -11 1 -8 -2 -11 -7 -8 -5 4 -11 -2 -14 -11 -2
-10 -4 0 -4 22 0 22 2 32 4 22 3 -9 9 -15 14 -11z m-2911 -52 c0 -8 -5 -12
-10 -9 -6 4 -8 11 -5 16 9 14 15 11 15 -7z m2891 -9 c5 4 9 2 9 -3 0 -6 -6
-12 -13 -15 -8 -3 -13 4 -14 22 0 14 1 18 4 8 2 -9 9 -15 14 -12z m166 -57
c-3 -8 -6 -5 -6 6 -1 11 2 17 5 13 3 -3 4 -12 1 -19z m-177 -15 c0 -8 -4 -11
-10 -8 -5 3 -11 -1 -11 -9 -1 -9 -3 -19 -4 -23 -2 -5 -6 -18 -10 -30 -4 -13
-11 -20 -16 -17 -5 3 -9 -2 -9 -11 0 -9 -5 -13 -10 -10 -6 4 -7 11 -4 17 4 6
2 8 -3 5 -6 -4 -16 0 -23 8 -10 12 -8 13 9 10 12 -2 19 0 16 5 -3 5 -1 11 4
15 6 3 9 11 7 18 -1 7 -1 8 2 4 2 -5 13 -1 23 9 10 9 17 20 14 24 -2 4 2 7 10
7 8 0 15 -7 15 -14z m177 -25 c-3 -8 -6 -5 -6 6 -1 11 2 17 5 13 3 -3 4 -12 1
-19z m-1000 -40 c-3 -8 -6 -5 -6 6 -1 11 2 17 5 13 3 -3 4 -12 1 -19z m640 7
c0 -8 -4 -12 -9 -9 -5 3 -6 10 -3 15 9 13 12 11 12 -6z m194 -30 c5 4 9 -1 9
-10 0 -9 -4 -14 -9 -11 -5 4 -11 0 -14 -6 -2 -7 -4 3 -4 22 0 19 2 27 4 17 3
-9 9 -15 14 -12z m-314 -8 c0 -8 -6 -14 -14 -14 -9 0 -10 4 -2 14 6 7 12 13
14 13 1 0 2 -6 2 -13z m20 -29 c-3 -8 -6 -5 -6 6 -1 11 2 17 5 13 3 -3 4 -12
1 -19z m240 0 c-3 -8 -6 -5 -6 6 -1 11 2 17 5 13 3 -3 4 -12 1 -19z m-820 -93
c0 -6 -6 -12 -12 -12 -6 0 -12 6 -12 12 0 6 6 12 12 12 6 0 12 -6 12 -12z m0
-40 c0 -6 -6 -12 -12 -12 -6 0 -12 6 -12 12 0 6 6 12 12 12 6 0 12 -6 12 -12z
m600 -7 c-3 -8 -6 -5 -6 6 -1 11 2 17 5 13 3 -3 4 -12 1 -19z m80 0 c-3 -8 -6
-5 -6 6 -1 11 2 17 5 13 3 -3 4 -12 1 -19z m-680 -33 c0 -6 -6 -12 -12 -12 -6
0 -12 6 -12 12 0 6 6 12 12 12 6 0 12 -6 12 -12z m3 -30 c0 -2 -6 -8 -13 -14
-10 -8 -14 -7 -14 2 0 8 6 14 14 14 7 0 13 -1 13 -2z m-326 -173 c3 -5 -1 -9
-9 -9 -8 0 -12 4 -9 9 3 4 7 8 9 8 2 0 6 -4 9 -8z m-520 -240 c3 -5 -1 -9 -9
-9 -8 0 -12 4 -9 9 3 4 7 8 9 8 2 0 6 -4 9 -8z m-257 -104 c-3 -8 -6 -5 -6 6
-1 11 2 17 5 13 3 -3 4 -12 1 -19z m303 -242 c0 -2 -8 -10 -17 -17 -16 -13
-17 -12 -4 4 13 16 21 21 21 13z m717 -129 c0 -8 -6 -14 -14 -14 -9 0 -10 4
-2 14 6 7 12 13 14 13 1 0 2 -6 2 -13z m-20 -64 c0 -7 -3 -11 -5 -8 -3 3 -11
0 -18 -6 -8 -7 -14 -7 -19 1 -4 6 -1 9 7 8 7 -2 12 2 11 8 -1 6 4 11 11 11 7
0 13 -6 13 -14z m-2660 -16 c0 -8 -6 -14 -14 -14 -9 0 -10 4 -2 14 6 7 12 13
14 13 1 0 2 -6 2 -13z m1560 -49 c-3 -8 -6 -5 -6 6 -1 11 2 17 5 13 3 -3 4
-12 1 -19z m-20 -20 c-3 -8 -6 -5 -6 6 -1 11 2 17 5 13 3 -3 4 -12 1 -19z m20
-20 c-3 -8 -6 -5 -6 6 -1 11 2 17 5 13 3 -3 4 -12 1 -19z m920 -73 c0 -6 -6
-12 -12 -12 -6 0 -12 6 -12 12 0 6 6 12 12 12 6 0 12 -6 12 -12z m81 -40 c2
-10 0 -15 -6 -11 -6 3 -13 -2 -16 -11 -4 -15 -4 -14 -3 2 1 11 -2 25 -6 32 -4
7 -1 10 10 9 10 -2 20 -11 21 -21z m36 -3 c3 -5 -1 -9 -9 -9 -8 0 -12 4 -9 9
3 4 7 8 9 8 2 0 6 -4 9 -8z m116 -58 c0 -8 -19 -13 -24 -6 -3 5 1 9 9 9 8 0
15 -2 15 -3z m-193 -19 c0 -6 -6 -12 -12 -12 -6 0 -12 6 -12 12 0 6 6 12 12
12 6 0 12 -6 12 -12z m-60 -27 c-3 -8 -6 -5 -6 6 -1 11 2 17 5 13 3 -3 4 -12
1 -19z m-2340 -20 c-3 -8 -6 -5 -6 6 -1 11 2 17 5 13 3 -3 4 -12 1 -19z m3920
0 c-3 -8 -6 -5 -6 6 -1 11 2 17 5 13 3 -3 4 -12 1 -19z m-20 -20 c-3 -8 -6 -5
-6 6 -1 11 2 17 5 13 3 -3 4 -12 1 -19z m20 -50 c-2 -13 -4 -5 -4 17 -1 22 1
32 4 23 2 -10 2 -28 0 -40z m-20 10 c-3 -8 -6 -5 -6 6 -1 11 2 17 5 13 3 -3 4
-12 1 -19z m-1480 -124 c-3 -3 -12 -4 -19 -1 -8 3 -5 6 6 6 11 1 17 -2 13 -5z
m1183 -11 c0 -9 5 -11 13 -7 9 6 9 5 -1 -8 -10 -12 -9 -18 3 -28 17 -14 10
-34 -8 -24 -7 4 -8 3 -4 -1 11 -13 38 -15 31 -3 -4 6 -2 8 4 4 6 -3 14 -1 19
6 11 19 13 39 2 32 -5 -3 -9 2 -9 12 0 13 3 14 15 4 8 -7 15 -19 15 -27 0 -8
5 -11 10 -8 6 4 9 1 8 -7 -2 -7 2 -12 8 -11 6 1 11 -4 11 -11 0 -7 -6 -13 -13
-13 -7 0 -12 4 -11 8 1 4 -2 7 -8 7 -5 0 -9 -3 -8 -7 1 -3 -23 -6 -52 -6 -44
0 -52 2 -43 13 6 7 7 12 2 11 -22 -4 -26 2 -11 19 14 15 14 19 3 19 -8 0 -14
-5 -13 -10 1 -5 -6 -11 -17 -12 -16 -3 -16 -1 4 20 13 14 28 21 34 18 6 -4 6
0 -1 8 -10 13 -10 16 2 16 8 0 15 -7 15 -14z m37 -5 c-3 -8 -6 -5 -6 6 -1 11
2 17 5 13 3 -3 4 -12 1 -19z m14 -35 c7 -7 7 -13 1 -17 -5 -3 -17 3 -27 13
-15 17 -15 19 -1 17 9 -1 21 -7 27 -13z m909 4 c0 -8 -7 -14 -15 -14 -8 0 -15
6 -15 14 0 7 7 13 15 13 8 0 15 -6 15 -13z m-360 -7 c0 -5 -7 -10 -16 -10 -8
0 -12 5 -9 10 3 6 10 10 16 10 5 0 9 -4 9 -10z m-954 -9 c8 7 15 6 20 -3 13
-21 13 -35 -2 -35 -7 0 -12 4 -11 8 1 4 -2 6 -8 6 -5 -1 -9 -5 -8 -8 1 -3 -4
-6 -12 -6 -8 0 -12 4 -9 8 2 4 0 10 -6 14 -5 3 -10 0 -10 -8 0 -7 -7 -14 -15
-14 -12 0 -10 6 7 24 14 15 25 20 32 13 6 -6 14 -6 22 1z m-486 -29 c0 -12 -3
-12 -15 -2 -8 7 -15 13 -15 15 0 1 7 2 15 2 8 0 15 -7 15 -15z m400 5 c0 -8
-7 -14 -15 -14 -11 0 -12 4 -4 14 6 7 13 13 15 13 2 0 4 -6 4 -13z m640 -2 c0
-6 -6 -12 -13 -12 -8 0 -14 6 -14 12 0 6 6 12 14 12 7 0 13 -6 13 -12z m37 -7
c-3 -8 -6 -5 -6 6 -1 11 2 17 5 13 3 -3 4 -12 1 -19z m-723 4 c3 -5 -1 -9 -9
-9 -8 0 -12 4 -9 9 3 4 7 8 9 8 2 0 6 -4 9 -8z m1401 -11 c10 -18 -17 -23 -33
-7 -15 15 -15 16 5 16 12 0 24 -4 28 -9z m-118 -7 c-3 -3 -12 -4 -19 -1 -8 3
-5 6 6 6 11 1 17 -2 13 -5z m-1962 -13 c-6 -11 -65 -42 -65 -35 0 4 62 44 68
44 2 0 1 -4 -3 -9z m1550 -21 c3 -5 1 -10 -4 -10 -6 0 -11 5 -11 10 0 6 2 10
4 10 3 0 8 -4 11 -10z m-1716 -27 c-6 -7 -15 -10 -20 -7 -5 3 -9 0 -9 -5 0 -6
-7 -11 -15 -11 -23 0 -18 20 7 29 34 12 50 10 37 -6z m6291 -241 c0 -12 -3
-12 -15 -2 -8 7 -15 13 -15 15 0 1 7 2 15 2 8 0 15 -7 15 -15z m36 4 c-3 -20
-17 -36 -27 -31 -5 4 -9 0 -9 -8 0 -7 7 -14 14 -14 8 0 14 4 13 8 -1 4 3 6 8
6 6 -1 9 -5 8 -8 -1 -3 5 -6 13 -6 8 0 12 3 9 5 -3 3 0 11 6 18 7 8 7 14 -1
19 -5 3 -10 -1 -10 -10 0 -9 -5 -13 -10 -10 -8 5 -8 11 -1 19 6 7 9 15 6 18
-3 2 2 5 10 5 8 0 15 -7 15 -14 0 -8 5 -11 10 -8 6 4 8 10 6 14 -3 4 1 8 9 8
8 0 13 -4 12 -8 -1 -4 3 -7 8 -7 6 0 9 3 8 7 -1 4 5 8 13 8 17 0 19 -23 2 -33
-7 -5 -8 -3 -3 7 8 12 6 12 -8 1 -9 -8 -16 -17 -15 -20 2 -21 -4 -23 -22 -7
-18 16 -20 16 -20 2 0 -10 6 -16 13 -14 6 1 11 -3 10 -9 -1 -6 4 -11 12 -11 8
0 13 5 12 11 -1 6 4 10 11 8 6 -1 11 2 10 7 -2 5 2 9 7 9 6 0 9 -3 8 -7 -1 -4
4 -8 12 -8 8 0 13 4 12 8 -1 4 3 7 8 7 6 0 9 -3 8 -7 -1 -4 4 -8 11 -8 8 0 13
7 11 16 -1 9 -12 16 -25 16 -13 0 -24 7 -25 16 -2 9 3 16 11 16 7 0 12 -5 11
-11 -1 -5 12 -10 28 -10 17 0 29 5 28 10 -1 6 4 11 11 11 7 0 13 -6 13 -13 0
-7 -3 -12 -6 -11 -3 1 -6 -2 -6 -8 0 -5 3 -9 8 -8 4 2 7 -4 7 -14 0 -14 -2
-14 -20 2 -18 16 -20 16 -20 2 0 -10 3 -16 8 -14 4 1 7 -2 7 -8 0 -5 -3 -9 -6
-8 -3 1 -6 -4 -6 -11 0 -7 6 -13 13 -13 7 0 11 4 8 8 -2 4 0 10 6 14 5 3 10
-1 10 -10 0 -9 5 -13 10 -10 8 5 8 11 0 20 -8 9 -8 15 0 20 5 3 10 -1 10 -10
0 -9 5 -13 10 -10 6 3 10 -1 10 -10 0 -9 -4 -13 -10 -10 -5 3 -10 -1 -10 -10
0 -9 -4 -14 -8 -11 -5 3 -9 -1 -9 -9 0 -8 4 -12 9 -9 4 3 8 -2 8 -11 0 -10 -5
-13 -12 -9 -7 5 -8 3 -2 -7 12 -20 14 -40 3 -33 -5 3 -9 -2 -9 -11 0 -9 4 -14
8 -11 4 2 8 -11 8 -29 0 -18 -4 -31 -8 -29 -4 3 -8 -2 -8 -11 0 -9 4 -14 8
-11 5 3 9 -1 9 -9 0 -8 -4 -12 -9 -9 -4 3 -8 -2 -8 -11 0 -9 4 -14 8 -11 5 3
9 -1 9 -9 0 -8 -3 -13 -6 -12 -3 1 -6 -2 -6 -8 0 -5 3 -9 6 -8 3 1 6 -4 6 -12
0 -8 -4 -12 -9 -9 -8 5 -11 -10 -11 -49 0 -10 -2 -15 -5 -12 -9 9 -42 -27 -35
-38 3 -5 1 -7 -4 -4 -6 4 -16 1 -22 -7 -10 -12 -22 -13 -49 -7 -2 1 0 6 3 11
5 8 12 7 23 -2 13 -11 14 -11 7 2 -10 17 -15 64 -6 54 6 -6 8 -12 10 -40 0 -8
6 -12 11 -9 8 5 8 11 1 19 -15 18 -1 28 18 14 10 -8 9 -4 -3 9 -10 13 -24 20
-30 16 -6 -4 -2 3 8 15 11 12 16 22 12 22 -4 0 -4 6 1 13 12 19 11 30 -6 51
-12 14 -12 17 -2 11 10 -6 12 -4 6 5 -6 9 -4 11 5 5 8 -5 11 -4 6 3 -7 12 19
10 31 -2 4 -4 1 -6 -7 -4 -13 3 -15 -3 -11 -48 0 -8 6 -12 11 -9 8 5 8 11 1
19 -15 18 -1 28 17 13 13 -10 14 -9 7 3 -15 23 -13 53 4 73 9 10 10 17 4 15
-6 -2 -11 2 -11 7 0 6 5 9 11 7 6 -2 4 5 -6 15 -16 18 -16 20 1 37 14 14 14
17 2 14 -8 -2 -14 2 -13 8 1 6 -4 11 -12 11 -8 0 -13 -3 -12 -6 1 -3 -2 -6 -8
-6 -5 0 -9 3 -8 6 1 3 -4 6 -11 6 -7 0 -13 -6 -13 -13 0 -7 3 -12 6 -11 3 1 6
-2 6 -8 0 -5 -3 -9 -6 -8 -3 1 -6 -4 -6 -12 0 -8 3 -13 6 -12 3 1 6 -2 6 -8 0
-5 -3 -9 -6 -8 -3 1 -6 -4 -6 -12 0 -8 3 -13 6 -12 3 1 6 -2 6 -8 0 -5 -3 -9
-7 -8 -5 2 -7 0 -5 -5 1 -4 -2 -7 -8 -7 -5 0 -9 3 -8 6 1 3 -4 6 -12 6 -8 0
-13 -3 -12 -6 1 -3 -2 -6 -8 -6 -5 0 -9 3 -8 6 1 3 -4 6 -11 6 -7 0 -13 -6
-13 -13 0 -7 3 -12 6 -11 3 1 6 -3 6 -8 0 -6 -3 -9 -6 -8 -3 1 -6 -4 -6 -12 0
-8 3 -13 6 -12 3 1 6 -2 6 -8 0 -5 -3 -9 -7 -8 -5 2 -7 0 -5 -5 1 -4 -2 -7 -8
-7 -5 0 -9 3 -8 6 1 3 -4 6 -11 6 -7 0 -13 -6 -13 -13 0 -7 3 -12 6 -11 3 1 6
-3 6 -8 0 -5 -3 -9 -6 -8 -3 1 -6 -4 -6 -12 0 -8 4 -13 8 -12 4 1 7 -2 7 -8 0
-5 -4 -9 -9 -7 -5 1 -8 -4 -6 -10 1 -7 -4 -12 -10 -10 -7 1 -12 -2 -10 -7 1
-5 -2 -9 -8 -9 -5 0 -9 4 -7 9 1 5 -1 8 -5 7 -5 -2 -8 2 -8 7 0 6 3 9 8 7 4
-1 6 4 5 10 -2 7 2 12 8 11 6 -1 11 4 11 11 0 7 -6 13 -13 13 -7 0 -12 -4 -11
-8 1 -4 -2 -6 -8 -5 -5 0 -9 4 -8 7 1 3 -4 6 -12 6 -8 0 -13 -5 -12 -11 1 -6
-4 -10 -11 -8 -6 1 -11 -4 -10 -10 2 -7 -3 -12 -9 -10 -7 1 -13 -5 -13 -15 0
-14 2 -14 20 2 23 21 23 19 22 -58 -1 -21 3 -35 8 -32 5 3 7 15 5 26 -3 15 -1
18 8 11 7 -5 20 -8 31 -6 11 1 20 -5 23 -17 5 -19 7 -19 24 -3 18 16 19 16 19
0 0 -9 5 -14 10 -11 6 4 8 10 5 15 -7 12 23 6 36 -7 7 -7 4 -10 -13 -9 -13 0
-22 -4 -21 -10 1 -6 -4 -11 -12 -11 -8 0 -13 3 -12 6 1 3 -2 7 -8 7 -5 1 -9
-1 -8 -5 1 -4 -4 -8 -12 -8 -8 0 -13 4 -12 8 1 4 -2 6 -8 5 -5 0 -9 -3 -8 -6
1 -3 -14 -6 -32 -6 -18 0 -33 3 -32 6 1 3 -2 6 -8 6 -5 1 -9 -1 -8 -5 1 -4 -4
-8 -12 -8 -8 0 -13 4 -12 8 1 4 -2 7 -8 7 -5 0 -8 -5 -7 -11 2 -7 0 -9 -4 -4
-4 4 -17 -1 -28 -10 -12 -10 -18 -14 -14 -9 4 5 2 16 -5 24 -10 13 -9 14 2 7
10 -6 12 -4 6 5 -5 8 -4 11 2 7 7 -4 10 5 8 23 -1 17 1 33 6 36 5 3 9 -2 9
-11 0 -9 5 -13 10 -10 8 5 7 12 -2 23 -11 15 -11 15 4 4 10 -8 19 -9 22 -3 4
5 2 12 -4 16 -6 4 -8 11 -4 16 3 5 1 8 -4 7 -6 -2 -10 2 -10 7 0 6 4 9 9 7 5
-1 8 4 7 10 -2 7 2 12 8 11 6 -1 11 4 11 12 0 8 -5 13 -11 12 -6 -1 -10 3 -9
9 1 6 -4 11 -11 11 -7 0 -13 -6 -13 -13 0 -7 3 -12 6 -11 3 1 6 -2 6 -8 0 -5
-3 -9 -7 -8 -5 2 -7 -3 -5 -10 1 -6 -4 -11 -10 -9 -7 1 -12 -4 -10 -10 1 -7
-4 -12 -10 -10 -7 1 -12 -1 -10 -5 1 -5 -2 -8 -8 -8 -5 0 -9 3 -8 6 1 3 -4 6
-11 6 -7 0 -13 -6 -13 -13 0 -7 4 -12 8 -11 4 1 7 -2 7 -8 0 -5 -3 -9 -7 -8
-4 1 -8 -4 -8 -11 0 -7 6 -13 13 -13 7 0 12 3 11 6 -1 3 3 7 8 9 6 1 9 -5 9
-13 -1 -8 -2 -22 -3 -31 0 -8 -6 -12 -11 -9 -6 4 -8 10 -6 14 3 4 -1 8 -8 8
-7 0 -13 -6 -13 -13 0 -7 3 -12 6 -11 3 1 6 -2 6 -8 0 -5 -3 -9 -7 -7 -5 1 -8
-5 -8 -15 0 -14 2 -14 20 2 19 17 20 17 20 0 0 -10 -3 -15 -7 -12 -3 4 -15 -1
-25 -10 -15 -14 -19 -14 -16 -3 2 9 -3 14 -11 12 -12 -3 -12 -1 -1 13 11 14
11 16 -1 13 -8 -2 -13 3 -11 10 1 6 -2 11 -7 10 -5 -2 -9 2 -9 7 0 6 4 9 9 7
5 -1 8 4 7 10 -2 7 2 12 8 11 6 -1 11 4 11 11 0 7 -6 13 -13 13 -7 0 -12 -3
-11 -6 1 -3 -2 -6 -8 -6 -5 0 -9 3 -7 8 1 4 -2 6 -7 5 -5 -2 -9 2 -9 7 0 6 3
9 7 8 4 -1 8 4 8 12 0 8 -4 13 -8 12 -4 -1 -7 3 -7 8 0 6 3 9 7 8 4 -1 8 4 8
11 0 7 -6 13 -13 13 -7 0 -12 -3 -11 -6 1 -3 -2 -6 -8 -6 -5 0 -9 3 -7 8 1 4
-1 6 -5 5 -5 -2 -8 2 -8 7 0 6 3 9 6 8 3 -1 6 4 6 11 0 7 -6 13 -13 13 -7 0
-12 -3 -11 -6 1 -3 -2 -6 -8 -6 -5 0 -9 3 -7 8 1 4 -1 6 -5 5 -5 -2 -8 2 -8 7
0 6 3 9 8 7 4 -1 6 1 5 5 -2 5 2 8 7 8 6 0 9 -3 8 -6 -1 -3 4 -6 12 -6 8 0 13
5 12 11 -1 6 4 10 11 8 6 -1 11 4 10 10 -2 7 3 12 9 11 7 -2 12 1 10 6 -1 5 3
9 8 9 6 0 9 -3 8 -7 -1 -4 4 -8 11 -8 7 0 13 6 13 13 0 7 -3 12 -6 11 -3 -1
-6 3 -6 8 0 6 4 9 9 7 5 -2 3 4 -4 13 -13 16 -25 12 -25 -8 0 -19 -58 -15 -60
4 -2 9 3 16 11 16 7 0 12 -4 11 -8 -1 -4 3 -7 8 -7 6 0 9 4 8 9 -2 5 1 8 6 6
5 -1 9 3 9 8 0 6 -3 9 -7 8 -4 -1 -8 4 -8 12 0 8 4 13 8 12 4 -1 6 3 6 8 -1 6
-5 9 -8 8 -3 -1 -6 4 -6 12 0 8 3 13 6 12 3 -1 6 3 6 8 0 6 -3 9 -7 8 -5 -2
-7 0 -5 5 1 4 -2 7 -8 7 -5 0 -9 -3 -8 -6 1 -3 -4 -6 -12 -6 -8 0 -13 5 -12
11 1 6 -4 10 -10 9 -7 -2 -12 3 -10 10 1 6 -3 11 -9 10 -6 -1 -11 4 -11 11 0
7 6 13 13 13 7 0 12 -3 11 -6 -1 -3 3 -6 8 -6 6 0 9 3 8 6 -1 3 4 6 12 6 8 0
13 -3 12 -6 -1 -3 3 -6 8 -6 6 0 9 3 8 7 -2 5 3 7 10 5 6 -1 11 3 10 9 -1 6 4
11 12 11 8 0 13 -5 12 -11 -1 -6 4 -10 11 -8 6 1 11 -2 10 -7 -2 -5 2 -9 7 -9
6 0 9 4 8 9 -2 5 0 8 5 7 4 -2 7 2 7 7 0 6 -3 9 -6 8 -3 -1 -6 4 -6 11 0 7 6
13 13 13 7 0 12 -4 11 -8 -1 -4 3 -7 8 -7 6 0 9 4 8 9 -2 5 3 8 10 7 6 -2 11
2 10 8 -2 11 61 13 73 1 9 -8 36 12 29 22 -2 4 2 8 9 8 8 0 13 -5 12 -11z
m284 -122 c0 -8 -5 -12 -10 -9 -6 4 -8 11 -5 16 9 14 15 11 15 -7z m-563 -40
c0 -7 -4 -12 -8 -11 -4 1 -7 -2 -7 -8 0 -5 3 -9 7 -8 4 1 8 -4 8 -11 0 -7 -6
-13 -13 -13 -7 0 -12 5 -11 11 1 6 -3 10 -9 9 -6 -1 -11 4 -11 12 0 8 5 13 11
12 6 -1 10 3 9 9 -1 6 4 11 11 11 7 0 13 -6 13 -13z m497 -35 c-9 -10 -21 -16
-26 -13 -5 3 -2 14 8 25 9 10 21 16 26 13 5 -3 2 -14 -8 -25z m-657 0 c-1 -4
3 -6 8 -5 6 0 9 4 8 7 -1 3 4 6 12 6 8 0 13 -3 12 -6 -1 -3 3 -6 8 -6 6 0 9 3
8 6 -1 3 4 6 12 6 8 0 13 -5 12 -11 -1 -6 4 -10 11 -8 6 1 11 -1 10 -5 -2 -5
1 -9 6 -10 5 -1 14 -12 20 -25 8 -15 20 -23 34 -22 l23 1 -22 -23 c-21 -22
-24 -23 -41 -7 -12 11 -15 20 -8 28 7 8 4 17 -10 30 -11 10 -21 15 -21 12 -1
-4 -2 -11 -3 -16 0 -5 -5 -13 -10 -18 -5 -5 -6 -2 -1 6 6 10 4 12 -5 6 -9 -6
-11 -4 -5 6 8 12 6 12 -8 0 -16 -13 -20 -11 -14 7 1 4 6 6 10 4 5 -1 6 2 2 8
-3 6 -12 7 -18 3 -7 -4 -16 -8 -22 -8 -5 0 -10 -7 -10 -15 0 -10 -11 -15 -35
-15 -24 0 -35 -5 -35 -15 -1 -8 -6 -14 -11 -13 -6 1 -11 -4 -11 -12 0 -8 5
-13 11 -12 5 1 11 -5 11 -13 1 -8 7 -14 14 -12 7 1 10 -2 5 -9 -5 -8 -3 -9 6
-4 9 6 11 4 5 -5 -5 -8 -4 -11 3 -6 7 4 9 -4 5 -25 -3 -21 -1 -29 6 -24 6 3 8
11 5 17 -5 7 -2 8 6 3 9 -6 11 -4 5 5 -5 9 -4 11 3 6 7 -4 12 -14 12 -22 0 -8
4 -13 9 -9 5 3 12 1 16 -4 3 -5 14 -8 25 -6 11 2 22 -1 25 -6 4 -5 10 -7 14
-5 4 3 7 -6 7 -19 0 -13 -2 -23 -5 -22 -4 1 -8 -3 -9 -8 -7 -19 -24 -35 -33
-29 -5 3 -9 -2 -9 -11 0 -9 4 -14 9 -10 5 3 13 1 16 -5 5 -8 11 -8 20 0 7 6
16 7 19 2 7 -11 52 -9 63 2 4 5 3 6 -4 2 -13 -7 -28 10 -14 18 10 6 44 -29 47
-48 1 -7 -4 -13 -12 -13 -7 0 -12 5 -11 11 1 6 -19 10 -48 10 -29 0 -49 -4
-48 -10 1 -6 -4 -11 -12 -11 -8 0 -13 3 -12 6 1 3 -2 6 -8 6 -5 0 -9 -3 -8 -6
1 -3 -4 -6 -12 -6 -8 0 -12 4 -9 8 2 4 0 10 -6 14 -5 3 -10 0 -10 -7 0 -7 -6
-4 -12 7 -17 28 -18 42 -2 42 7 0 12 -3 11 -6 -1 -3 3 -6 8 -6 6 0 9 3 8 7 -2
5 0 7 5 5 4 -1 7 3 7 8 0 5 -3 9 -6 8 -3 -1 -6 4 -6 11 0 7 6 13 13 13 7 0 12
-3 11 -6 -1 -3 3 -6 8 -6 6 0 9 3 8 7 -2 5 0 7 5 5 4 -1 7 3 7 8 0 6 -3 9 -7
8 -5 -2 -7 0 -5 5 1 4 -2 7 -8 7 -5 0 -9 -3 -8 -6 1 -3 -4 -6 -12 -6 -8 0 -13
3 -12 6 1 3 -2 6 -8 6 -5 0 -9 -3 -8 -6 1 -3 -4 -6 -12 -6 -8 0 -13 4 -12 8 1
4 -2 7 -8 7 -5 0 -9 -4 -7 -9 1 -5 -1 -8 -5 -6 -5 1 -8 -2 -8 -8 0 -5 3 -9 6
-8 3 1 6 -4 6 -12 0 -8 -5 -13 -11 -12 -6 1 -10 -4 -8 -10 1 -7 -4 -12 -10
-10 -7 1 -12 -3 -11 -9 1 -6 -4 -11 -11 -11 -17 0 -14 40 4 63 14 18 14 18 -2
5 -17 -13 -21 -11 -15 7 1 4 5 6 8 5 3 -1 6 4 6 12 0 8 -5 11 -10 8 -6 -3 -7
-1 -3 5 5 9 -13 10 -34 2 -3 -1 -8 -2 -12 -1 -5 0 -8 -6 -8 -15 0 -9 5 -12 12
-8 6 4 8 3 4 -4 -3 -6 -1 -14 5 -18 8 -5 9 -3 4 6 -5 9 -4 11 3 6 17 -10 15
-33 -3 -33 -8 0 -12 4 -9 8 2 4 0 10 -5 13 -5 4 -11 -2 -14 -11 -2 -10 -4 3
-3 29 0 27 4 46 11 45 5 -1 9 3 8 9 -1 6 4 11 12 11 8 0 13 -3 12 -6 -1 -3 3
-6 8 -6 6 0 9 3 8 7 -2 5 3 7 10 5 6 -1 11 4 10 11 -2 6 0 11 5 10 4 -2 7 2 7
7 0 6 -3 9 -7 7 -5 -1 -7 4 -5 10 1 7 -3 12 -8 11 -6 -1 -11 14 -11 32 0 18 3
33 6 32 3 -1 6 3 7 8 0 6 -2 9 -6 8 -4 -1 -8 4 -8 11 0 7 6 13 13 13 7 0 12
-4 11 -8 -1 -4 3 -6 8 -5 6 0 9 4 8 7 -1 3 4 6 12 6 8 0 13 -4 12 -8 -1 -4 3
-7 8 -8 6 0 10 12 9 27 0 17 5 29 12 29 7 0 12 -4 11 -8z m667 -30 c-3 -5 -10
-7 -15 -3 -5 3 -9 2 -8 -3 3 -17 -1 -24 -12 -18 -7 5 -4 13 7 26 16 18 40 17
28 -2z m-4987 -10 c-1 -4 3 -6 8 -5 6 0 9 4 8 7 -1 3 4 6 11 6 7 0 13 -6 13
-13 0 -7 -3 -12 -6 -11 -3 1 -6 -2 -6 -8 0 -5 3 -9 6 -8 3 1 6 -4 6 -11 0 -7
-6 -13 -13 -13 -7 0 -12 3 -11 6 1 3 -2 6 -8 6 -5 0 -9 -3 -8 -6 1 -3 -4 -6
-11 -6 -7 0 -13 6 -13 13 0 7 3 12 6 11 3 -1 7 3 8 8 0 6 -2 9 -6 8 -4 -1 -8
4 -8 11 0 7 6 13 13 13 7 0 12 -4 11 -8z m4347 -30 c-3 -5 -10 -6 -16 -3 -6 4
-8 2 -4 -4 3 -6 2 -13 -3 -16 -5 -4 -13 -2 -16 4 -5 8 -11 8 -20 0 -9 -7 -16
-6 -24 4 -9 11 -6 13 19 11 16 -1 35 4 41 11 12 15 33 9 23 -7z m80 0 c-3 -5
-9 -7 -13 -5 -4 3 -8 -1 -8 -9 0 -8 4 -13 8 -12 4 1 7 -2 7 -8 0 -5 -5 -9 -11
-7 -7 2 -9 0 -5 -4 4 -4 3 -13 -3 -20 -7 -8 -7 -14 1 -19 6 -3 7 -11 4 -17 -4
-6 -3 -8 3 -5 5 3 27 -12 48 -33 22 -22 36 -40 32 -40 -14 0 -22 5 -19 13 1 4
-4 6 -10 5 -7 -2 -12 3 -10 10 1 8 -1 11 -6 8 -8 -4 -9 -50 -2 -66 1 -3 2 -8
1 -12 0 -5 2 -7 7 -5 4 1 7 -2 7 -8 0 -5 -4 -9 -9 -7 -5 2 -4 -4 3 -12 10 -12
9 -14 -6 -11 -10 1 -17 8 -15 14 1 6 -1 10 -5 8 -5 -1 -8 2 -8 8 0 5 3 9 6 8
3 -1 5 15 4 35 0 21 -6 38 -13 38 -7 1 -14 3 -17 4 -3 1 -14 3 -24 4 -11 0
-30 11 -43 24 -14 12 -28 20 -31 17 -4 -3 -5 -2 -2 2 8 11 -27 43 -39 36 -6
-4 -5 1 3 10 14 18 36 13 25 -5 -5 -7 -2 -8 6 -3 9 6 11 4 5 -5 -6 -9 -4 -11
5 -5 9 5 11 4 6 -4 -5 -7 -2 -10 6 -9 7 2 12 -3 10 -10 -1 -8 2 -11 9 -6 8 5
9 3 4 -6 -6 -9 -4 -11 5 -5 9 6 11 4 5 -6 -5 -8 -5 -11 0 -7 4 4 14 3 21 -3 8
-7 14 -7 19 1 4 6 3 9 -2 8 -4 -2 -8 2 -8 7 0 6 2 9 5 8 3 -1 6 14 6 32 0 18
-3 33 -6 32 -3 -1 -6 3 -6 8 -1 6 2 9 8 7 5 -1 7 2 3 8 -5 8 -11 8 -19 1 -7
-6 -17 -7 -21 -3 -5 4 -5 1 0 -7 6 -10 4 -12 -5 -6 -9 6 -11 4 -5 -5 5 -9 4
-11 -4 -6 -6 4 -11 4 -10 -1 3 -17 -1 -24 -12 -17 -7 4 1 19 22 40 23 24 36
31 44 24 9 -7 16 -5 25 5 13 16 35 11 24 -6z m560 0 c-3 -5 -11 -6 -17 -2 -8
4 -7 1 1 -9 11 -14 10 -16 -5 -13 -10 1 -26 -4 -36 -13 -16 -15 -16 -16 0 -35
10 -10 17 -21 15 -23 -1 -2 -10 -18 -20 -35 -16 -28 -34 -41 -31 -21 1 4 4 6
8 5 4 -1 7 18 7 42 0 24 -5 41 -10 38 -5 -3 -6 -1 -2 5 3 6 3 13 -2 16 -5 3
-8 -9 -8 -27 1 -21 -3 -31 -12 -29 -8 1 -11 -2 -6 -9 5 -8 3 -9 -6 -4 -9 6
-11 4 -5 -5 5 -8 4 -11 -2 -7 -5 4 -9 -7 -9 -26 1 -23 -3 -31 -13 -29 -11 2
-12 0 -4 -10 6 -7 12 -19 14 -26 3 -9 12 -4 29 14 14 15 20 24 13 20 -14 -8
-28 10 -14 18 5 4 13 1 18 -6 11 -18 13 -39 3 -33 -4 3 -10 -4 -13 -15 -3 -13
-11 -18 -26 -15 -11 2 -23 -1 -27 -6 -4 -7 -12 -5 -22 4 -10 8 -25 13 -34 12
-18 -3 -31 9 -34 34 -2 8 6 5 20 -8 l22 -21 33 34 c22 23 29 36 21 41 -8 5 -2
18 20 40 21 22 28 35 20 40 -8 5 -6 12 6 26 12 13 21 16 29 9 8 -7 20 -1 40
20 25 26 54 33 39 9z m-720 -40 c-3 -5 -10 -7 -15 -3 -5 3 -7 10 -3 15 3 5 10
7 15 3 5 -3 7 -10 3 -15z m40 0 c-3 -5 -10 -7 -15 -3 -5 3 -7 10 -3 15 3 5 10
7 15 3 5 -3 7 -10 3 -15z m72 -32 c-4 -31 -18 -39 -37 -21 -18 16 -18 18 -3
36 18 19 44 9 40 -15z m-4679 -49 c-3 -8 -6 -5 -6 6 -1 11 2 17 5 13 3 -3 4
-12 1 -19z m5200 7 c0 -8 -11 -24 -23 -36 -28 -26 -28 -1 1 31 22 24 22 24 22
5z m-153 -46 c-3 -5 -10 -7 -15 -3 -5 3 -7 10 -3 15 3 5 10 7 15 3 5 -3 7 -10
3 -15z m-540 -20 c-3 -5 -10 -7 -15 -3 -5 3 -7 10 -3 15 3 5 10 7 15 3 5 -3 7
-10 3 -15z m447 4 c8 -9 9 -14 3 -10 -7 4 -17 0 -24 -8 -7 -8 -17 -12 -22 -9
-5 3 -2 14 8 25 21 23 18 23 35 2z m-147 -65 c-8 -13 -61 38 -61 58 0 10 11 4
33 -17 18 -18 31 -36 28 -41z m-5407 40 c-3 -8 -6 -5 -6 6 -1 11 2 17 5 13 3
-3 4 -12 1 -19z m40 0 c-3 -8 -6 -5 -6 6 -1 11 2 17 5 13 3 -3 4 -12 1 -19z
m5727 1 c-3 -5 -10 -7 -15 -3 -5 3 -7 10 -3 15 3 5 10 7 15 3 5 -3 7 -10 3
-15z m-5567 -11 c-3 -8 -6 -5 -6 6 -1 11 2 17 5 13 3 -3 4 -12 1 -19z m60 -10
c-3 -8 -6 -5 -6 6 -1 11 2 17 5 13 3 -3 4 -12 1 -19z m5047 -39 c-3 -5 -10 -7
-15 -3 -5 3 -7 10 -3 15 3 5 10 7 15 3 5 -3 7 -10 3 -15z m-5207 -41 c-3 -8
-6 -5 -6 6 -1 11 2 17 5 13 3 -3 4 -12 1 -19z m160 0 c-3 -8 -6 -5 -6 6 -1 11
2 17 5 13 3 -3 4 -12 1 -19z m40 0 c-3 -8 -6 -5 -6 6 -1 11 2 17 5 13 3 -3 4
-12 1 -19z m-80 -20 c-3 -7 -5 -2 -5 12 0 14 2 19 5 13 2 -7 2 -19 0 -25z m20
0 c-3 -8 -6 -5 -6 6 -1 11 2 17 5 13 3 -3 4 -12 1 -19z"/>
<path d="M1566 4502 c-3 -5 1 -9 9 -9 8 0 12 4 9 9 -3 4 -7 8 -9 8 -2 0 -6 -4
-9 -8z"/>
<path d="M1001 4464 c0 -11 3 -14 6 -6 3 7 2 16 -1 19 -3 4 -6 -2 -5 -13z"/>
<path d="M1120 4476 c0 -2 8 -10 18 -17 15 -13 16 -12 3 4 -13 16 -21 21 -21
13z"/>
<path d="M1181 4444 c0 -11 3 -14 6 -6 3 7 2 16 -1 19 -3 4 -6 -2 -5 -13z"/>
<path d="M606 4422 c-3 -5 1 -9 9 -9 8 0 12 4 9 9 -3 4 -7 8 -9 8 -2 0 -6 -4
-9 -8z"/>
<path d="M1843 4405 c0 -7 6 -12 14 -11 19 3 21 19 2 21 -9 2 -16 -3 -16 -10z"/>
<path d="M761 4384 c0 -11 3 -14 6 -6 3 7 2 16 -1 19 -3 4 -6 -2 -5 -13z"/>
<path d="M1535 4391 c-3 -5 -1 -12 5 -16 6 -4 8 -10 6 -14 -3 -4 6 -7 18 -7
12 0 23 5 23 12 0 6 -10 11 -21 10 -12 -1 -20 4 -18 12 2 14 -4 16 -13 3z"/>
<path d="M1823 4366 c1 -6 -3 -10 -9 -9 -9 2 -9 -4 0 -22 l11 -25 3 23 c2 12
8 27 13 33 5 7 3 11 -6 11 -7 0 -13 -5 -12 -11z"/>
<path d="M1486 4342 c-3 -5 1 -9 9 -9 8 0 12 4 9 9 -3 4 -7 8 -9 8 -2 0 -6 -4
-9 -8z"/>
<path d="M1749 4324 c-6 -7 -5 -15 5 -23 10 -9 16 -8 26 4 7 8 16 12 21 9 5
-3 9 1 9 8 0 17 -47 19 -61 2z"/>
<path d="M1563 4265 c0 -6 6 -12 12 -12 6 0 12 6 12 12 0 6 -6 12 -12 12 -6 0
-12 -6 -12 -12z"/>
<path d="M1526 4262 c-3 -5 1 -9 9 -9 8 0 12 4 9 9 -3 4 -7 8 -9 8 -2 0 -6 -4
-9 -8z"/>
<path d="M1623 4245 c0 -6 6 -12 12 -12 6 0 12 6 12 12 0 6 -6 12 -12 12 -6 0
-12 -6 -12 -12z"/>
<path d="M1530 4225 c-6 -8 -2 -11 14 -11 12 0 23 5 23 11 0 7 -6 12 -14 12
-7 0 -18 -5 -23 -12z"/>
<path d="M1852 4143 c6 -8 7 -13 2 -12 -5 1 -20 -3 -34 -9 -14 -6 -21 -11 -16
-11 5 -1 1 -11 -10 -23 -10 -12 -13 -18 -6 -14 10 6 17 -9 14 -35 -2 -10 42
-5 54 6 8 6 9 14 3 21 -10 13 13 38 24 27 4 -3 7 1 7 11 0 9 -4 14 -10 11 -8
-5 -14 13 -12 36 1 3 -6 6 -13 6 -11 0 -12 -3 -3 -14z m1 -46 c7 4 6 0 -2 -10
-7 -9 -18 -14 -24 -10 -5 3 -7 1 -3 -5 3 -6 2 -13 -3 -16 -17 -11 -18 28 -2
48 14 16 16 16 19 2 2 -9 8 -13 15 -9z"/>
<path d="M1613 4048 c-13 -21 -12 -35 3 -35 11 0 11 3 1 16 -8 10 -9 13 0 8 6
-4 14 -3 17 2 4 5 2 12 -3 15 -5 4 -13 1 -18 -6z"/>
<path d="M1640 4035 c-12 -14 -7 -20 14 -16 5 1 4 -5 -4 -13 -15 -19 -24 -21
-14 -3 4 6 3 8 -1 4 -17 -15 -12 -33 9 -33 16 0 23 7 24 23 1 12 -3 25 -8 28
-6 4 -8 11 -5 16 10 14 -1 10 -15 -6z"/>
<path d="M1821 4004 c0 -11 3 -14 6 -6 3 7 2 16 -1 19 -3 4 -6 -2 -5 -13z"/>
<path d="M1375 3992 c-5 -4 -18 -17 -28 -29 -18 -21 -18 -22 2 -16 22 6 34 19
37 41 3 14 2 14 -11 4z"/>
<path d="M1691 3987 c-8 -10 -7 -14 2 -14 8 0 14 6 14 14 0 7 -1 13 -2 13 -2
0 -8 -6 -14 -13z"/>
<path d="M1721 3984 c0 -11 3 -14 6 -6 3 7 2 16 -1 19 -3 4 -6 -2 -5 -13z"/>
<path d="M1410 3950 c-8 -5 -12 -12 -9 -15 4 -3 12 1 19 10 14 17 11 19 -10 5z"/>
<path d="M1640 3945 c0 -9 -5 -13 -10 -10 -6 4 -9 2 -8 -3 2 -6 -1 -9 -7 -8
-5 0 -9 5 -7 9 1 5 -2 6 -8 2 -8 -5 -8 -11 -1 -19 6 -7 9 -15 6 -18 -3 -2 2
-5 10 -5 8 0 12 4 9 8 -2 4 0 10 5 13 5 4 12 -2 15 -11 4 -15 4 -14 3 2 -1 11
2 25 6 32 4 6 3 14 -3 18 -5 3 -10 -1 -10 -10z"/>
<path d="M1272 3909 c-36 -32 -41 -49 -7 -21 21 18 50 52 44 52 -2 0 -19 -14
-37 -31z"/>
<path d="M1381 3924 c0 -11 3 -14 6 -6 3 7 2 16 -1 19 -3 4 -6 -2 -5 -13z"/>
<path d="M1853 3933 c-22 -8 -14 -23 11 -21 19 2 22 5 14 15 -6 7 -11 13 -12
12 0 0 -7 -3 -13 -6z"/>
<path d="M1735 3910 c-3 -5 -1 -10 4 -10 6 0 11 5 11 10 0 6 -2 10 -4 10 -3 0
-8 -4 -11 -10z"/>
<path d="M1343 3886 c1 -6 -4 -10 -11 -8 -8 1 -11 -2 -7 -8 5 -8 11 -8 19 -1
7 6 15 9 18 6 3 -3 10 0 16 8 9 10 6 13 -13 13 -13 0 -23 -5 -22 -10z"/>
<path d="M1660 3882 c0 -12 3 -12 15 -2 8 7 15 13 15 15 0 1 -7 2 -15 2 -8 0
-15 -7 -15 -15z"/>
<path d="M1561 3864 c0 -11 3 -14 6 -6 3 7 2 16 -1 19 -3 4 -6 -2 -5 -13z"/>
<path d="M1405 3860 c-4 -6 -10 -8 -14 -6 -4 3 -8 -1 -8 -8 0 -20 25 -15 30 6
6 20 2 24 -8 8z"/>
<path d="M1450 3825 c-10 -12 -10 -15 4 -15 9 0 16 7 16 15 0 8 -2 15 -4 15
-2 0 -9 -7 -16 -15z"/>
<path d="M1226 3801 c-12 -13 -14 -21 -6 -26 6 -4 9 -1 8 7 -2 7 2 12 8 11 6
-1 11 5 11 13 0 18 0 18 -21 -5z"/>
<path d="M1283 3783 c0 -9 4 -10 14 -2 7 6 13 12 13 14 0 1 -6 2 -13 2 -8 0
-14 -6 -14 -14z"/>
<path d="M1374 3789 c-8 -14 14 -19 25 -6 8 10 7 14 -5 14 -8 0 -17 -4 -20 -8z"/>
<path d="M2811 3766 c-9 -10 -8 -16 4 -26 13 -11 16 -11 13 1 -2 8 3 13 11 11
12 -3 12 0 1 12 -15 19 -15 19 -29 2z"/>
<path d="M2480 3748 c0 -4 4 -8 9 -8 6 0 12 4 15 8 3 5 -1 9 -9 9 -8 0 -15 -4
-15 -9z"/>
<path d="M2674 3748 c-13 -21 -13 -35 2 -35 7 0 12 5 11 11 -1 6 12 11 29 10
18 0 31 5 31 12 0 12 -21 13 -33 1 -4 -4 -13 -2 -20 4 -9 7 -15 6 -20 -3z"/>
<path d="M1162 3715 c0 -16 2 -22 5 -12 2 9 2 23 0 30 -3 6 -5 -1 -5 -18z"/>
<path d="M1189 3723 c-13 -16 -12 -17 4 -4 9 7 17 15 17 17 0 8 -8 3 -21 -13z"/>
<path d="M2589 3723 c-10 -11 -10 -14 -1 -9 7 4 12 1 12 -8 0 -9 -3 -15 -7
-15 -22 4 -33 -3 -33 -19 0 -10 7 -19 15 -19 11 0 12 4 4 13 -8 10 -6 12 8 9
16 -3 20 3 20 31 0 39 0 39 -18 17z"/>
<path d="M1520 3705 c0 -6 6 -12 13 -12 8 0 14 6 14 12 0 6 -6 12 -14 12 -7 0
-13 -6 -13 -12z"/>
<path d="M2241 3684 c0 -11 3 -14 6 -6 3 7 2 16 -1 19 -3 4 -6 -2 -5 -13z"/>
<path d="M1123 3665 c0 -6 6 -12 12 -12 6 0 12 6 12 12 0 6 -6 12 -12 12 -6 0
-12 -6 -12 -12z"/>
<path d="M2521 3667 c-1 -11 -6 -15 -13 -11 -7 5 -8 3 -3 -5 10 -16 29 2 22
21 -4 8 -6 7 -6 -5z"/>
<path d="M3241 3664 c0 -11 3 -14 6 -6 3 7 2 16 -1 19 -3 4 -6 -2 -5 -13z"/>
<path d="M1200 3623 c0 -8 -4 -11 -10 -8 -5 3 -10 0 -10 -8 0 -7 7 -14 14 -14
8 0 14 5 13 11 -1 6 4 10 11 9 6 -2 12 3 12 10 0 8 -7 14 -15 14 -8 0 -15 -7
-15 -14z"/>
<path d="M3240 3627 c0 -8 7 -14 15 -14 11 0 12 4 4 14 -6 7 -13 13 -15 13 -2
0 -4 -6 -4 -13z"/>
<path d="M3360 3626 c0 -10 4 -15 9 -11 5 3 12 -3 14 -12 4 -15 5 -15 6 -2 0
9 -6 22 -14 29 -12 10 -15 9 -15 -4z"/>
<path d="M3281 3584 c0 -11 3 -14 6 -6 3 7 2 16 -1 19 -3 4 -6 -2 -5 -13z"/>
<path d="M3361 3584 c0 -11 3 -14 6 -6 3 7 2 16 -1 19 -3 4 -6 -2 -5 -13z"/>
<path d="M2069 3544 c-7 -9 -6 -12 6 -10 22 3 40 23 20 23 -8 0 -20 -6 -26
-13z"/>
<path d="M3361 3544 c0 -11 3 -14 6 -6 3 7 2 16 -1 19 -3 4 -6 -2 -5 -13z"/>
<path d="M3381 3524 c0 -11 3 -14 6 -6 3 7 2 16 -1 19 -3 4 -6 -2 -5 -13z"/>
<path d="M1086 3468 c3 -5 10 -6 15 -3 13 9 11 12 -6 12 -8 0 -12 -4 -9 -9z"/>
<path d="M3460 3445 c0 -9 -4 -13 -10 -10 -5 3 -10 -1 -10 -9 0 -9 3 -15 8
-13 4 1 7 -2 7 -8 0 -5 -3 -9 -7 -7 -5 1 -8 -5 -8 -13 0 -8 3 -14 8 -12 4 1 8
-2 9 -8 0 -5 -3 -9 -8 -7 -5 1 -9 -6 -9 -15 0 -14 3 -13 23 5 17 16 26 19 34
11 22 -22 8 20 -15 44 -16 17 -19 26 -11 34 8 8 8 13 0 17 -6 4 -11 0 -11 -9z
m20 -61 c0 -8 -5 -12 -10 -9 -6 4 -8 11 -5 16 9 14 15 11 15 -7z"/>
<path d="M3401 3424 c0 -11 3 -14 6 -6 3 7 2 16 -1 19 -3 4 -6 -2 -5 -13z"/>
<path d="M3243 3387 c0 -8 6 -14 14 -14 9 0 10 4 2 14 -6 7 -12 13 -14 13 -1
0 -2 -6 -2 -13z"/>
<path d="M3280 3396 c0 -2 8 -10 18 -17 15 -13 16 -12 3 4 -13 16 -21 21 -21
13z"/>
<path d="M3321 3384 c0 -11 3 -14 6 -6 3 7 2 16 -1 19 -3 4 -6 -2 -5 -13z"/>
<path d="M3360 3396 c0 -2 8 -10 18 -17 15 -13 16 -12 3 4 -13 16 -21 21 -21
13z"/>
<path d="M3321 3344 c0 -11 3 -14 6 -6 3 7 2 16 -1 19 -3 4 -6 -2 -5 -13z"/>
<path d="M3401 3344 c0 -11 3 -14 6 -6 3 7 2 16 -1 19 -3 4 -6 -2 -5 -13z"/>
<path d="M3381 3284 c0 -11 3 -14 6 -6 3 7 2 16 -1 19 -3 4 -6 -2 -5 -13z"/>
<path d="M3281 3264 c0 -11 3 -14 6 -6 3 7 2 16 -1 19 -3 4 -6 -2 -5 -13z"/>
<path d="M3321 3264 c0 -11 3 -14 6 -6 3 7 2 16 -1 19 -3 4 -6 -2 -5 -13z"/>
<path d="M890 3245 c-11 -13 -10 -14 4 -9 9 3 16 10 16 15 0 13 -6 11 -20 -6z"/>
<path d="M3281 3224 c0 -11 3 -14 6 -6 3 7 2 16 -1 19 -3 4 -6 -2 -5 -13z"/>
<path d="M3241 3184 c0 -11 3 -14 6 -6 3 7 2 16 -1 19 -3 4 -6 -2 -5 -13z"/>
<path d="M3260 3164 c0 -8 -4 -12 -10 -9 -5 3 -10 -1 -10 -10 0 -9 4 -14 9
-11 5 4 11 0 14 -6 2 -7 4 2 5 20 0 17 -1 32 -4 32 -2 0 -4 -7 -4 -16z"/>
<path d="M941 3124 c0 -11 3 -14 6 -6 3 7 2 16 -1 19 -3 4 -6 -2 -5 -13z"/>
<path d="M978 3074 c-4 -6 1 -19 12 -29 11 -10 18 -21 15 -25 -2 -4 2 -7 9 -7
7 0 13 6 13 13 0 7 -5 12 -11 11 -6 -1 -10 4 -8 11 1 8 -2 11 -7 8 -5 -4 -11
2 -13 11 -2 12 -6 14 -10 7z"/>
<path d="M3163 3067 c0 -8 6 -14 14 -14 9 0 10 4 2 14 -6 7 -12 13 -14 13 -1
0 -2 -6 -2 -13z"/>
<path d="M3201 3064 c0 -11 3 -14 6 -6 3 7 2 16 -1 19 -3 4 -6 -2 -5 -13z"/>
<path d="M1048 3033 c7 -3 16 -2 19 1 4 3 -2 6 -13 5 -11 0 -14 -3 -6 -6z"/>
<path d="M3161 3024 c0 -11 3 -14 6 -6 3 7 2 16 -1 19 -3 4 -6 -2 -5 -13z"/>
<path d="M3181 3004 c0 -11 3 -14 6 -6 3 7 2 16 -1 19 -3 4 -6 -2 -5 -13z"/>
<path d="M840 2995 c0 -2 7 -8 15 -15 12 -10 15 -10 15 2 0 8 -7 15 -15 15 -8
0 -15 -1 -15 -2z"/>
<path d="M903 2963 c0 -9 4 -10 14 -2 7 6 13 12 13 14 0 1 -6 2 -13 2 -8 0
-14 -6 -14 -14z"/>
<path d="M843 2928 c-1 -28 10 -37 22 -18 4 6 11 8 16 5 5 -4 9 4 9 17 0 18
-6 24 -23 24 -18 0 -23 -6 -24 -28z m31 14 c3 -5 -1 -9 -9 -9 -8 0 -12 4 -9 9
3 4 7 8 9 8 2 0 6 -4 9 -8z"/>
<path d="M3124 2936 c0 -18 5 -23 18 -21 11 2 18 -2 18 -11 0 -8 4 -13 9 -11
5 1 9 -2 9 -8 0 -5 -4 -9 -9 -7 -5 1 -9 -5 -9 -14 0 -8 -5 -12 -10 -9 -6 4 -8
10 -6 14 3 4 -1 8 -8 8 -7 0 -13 -6 -13 -13 0 -7 4 -12 8 -11 4 1 7 -2 7 -8 0
-5 -4 -9 -9 -7 -5 1 -9 -5 -9 -14 0 -8 -5 -12 -10 -9 -6 4 -9 1 -8 -7 2 -7 -3
-12 -10 -10 -8 1 -11 -2 -7 -9 5 -7 23 4 50 31 28 27 45 38 50 30 5 -8 11 -8
21 1 10 8 12 15 5 22 -7 7 -7 15 -1 22 7 8 0 21 -20 40 -25 24 -30 26 -30 10
0 -17 -1 -17 -18 -2 -17 15 -18 15 -18 -7z m65 -22 c4 3 8 -1 8 -9 0 -11 -4
-12 -14 -4 -7 6 -12 19 -12 28 1 13 2 13 6 -2 2 -9 8 -15 12 -13z m15 -55 c-3
-5 -10 -7 -15 -3 -5 3 -7 10 -3 15 3 5 10 7 15 3 5 -3 7 -10 3 -15z"/>
<path d="M809 2903 c-13 -16 -12 -17 4 -4 9 7 17 15 17 17 0 8 -8 3 -21 -13z"/>
<path d="M915 2890 c-3 -5 -1 -10 4 -10 6 0 11 5 11 10 0 6 -2 10 -4 10 -3 0
-8 -4 -11 -10z"/>
<path d="M3003 2746 c1 -6 -8 -10 -21 -10 -12 1 -20 -1 -17 -4 12 -13 34 -9
49 7 14 15 14 18 2 18 -8 0 -14 -5 -13 -11z"/>
<path d="M2683 2607 c-1 -37 0 -38 18 -21 18 16 17 40 -1 29 -5 -3 -10 3 -13
12 -2 10 -4 1 -4 -20z"/>
<path d="M2366 2148 c3 -5 10 -6 15 -3 13 9 11 12 -6 12 -8 0 -12 -4 -9 -9z"/>
<path d="M2252 2018 c7 -15 15 -23 17 -17 2 6 -4 18 -13 27 -15 15 -15 15 -4
-10z"/>
<path d="M1963 1785 c0 -6 6 -12 12 -12 6 0 12 6 12 12 0 6 -6 12 -12 12 -6 0
-12 -6 -12 -12z"/>
<path d="M2886 1762 c-3 -5 1 -9 9 -9 8 0 12 4 9 9 -3 4 -7 8 -9 8 -2 0 -6 -4
-9 -8z"/>
<path d="M3061 1604 c0 -11 3 -14 6 -6 3 7 2 16 -1 19 -3 4 -6 -2 -5 -13z"/>
<path d="M3277 1592 c2 -10 11 -19 19 -19 11 0 11 4 -3 19 -9 10 -17 18 -19
18 -1 0 0 -8 3 -18z"/>
<path d="M3200 1585 c0 -6 6 -12 13 -12 8 0 14 6 14 12 0 6 -6 12 -14 12 -7 0
-13 -6 -13 -12z"/>
<path d="M3363 1586 c0 -8 5 -14 11 -13 6 1 10 -4 9 -10 -2 -7 3 -12 10 -10 6
1 11 -3 10 -9 -1 -6 4 -11 11 -11 7 0 13 6 13 13 0 7 -5 12 -11 11 -6 -1 -9 5
-8 13 2 8 0 12 -4 7 -4 -4 -15 0 -24 8 -14 13 -17 13 -17 1z"/>
<path d="M3180 1564 c0 -8 -4 -12 -10 -9 -5 3 -10 -1 -10 -10 0 -9 5 -13 10
-10 6 3 10 -1 10 -10 0 -9 -4 -13 -10 -10 -5 3 -10 -1 -10 -10 0 -9 -4 -13
-10 -10 -5 3 -10 -1 -10 -10 0 -9 5 -13 10 -10 6 3 10 0 10 -8 0 -7 7 -14 15
-14 11 0 12 3 3 14 -9 11 -8 13 3 11 8 -2 17 -10 20 -18 4 -8 7 3 7 25 0 22
-3 33 -7 25 -3 -8 -12 -16 -20 -18 -11 -2 -12 0 -4 10 10 13 16 78 7 78 -2 0
-4 -7 -4 -16z"/>
<path d="M3444 1555 c0 -16 6 -22 21 -21 11 1 19 -4 18 -9 -1 -6 9 -11 22 -11
13 0 23 5 22 11 -1 5 5 9 13 7 12 -3 13 -1 2 10 -11 11 -14 10 -22 -2 -9 -13
-14 -8 -11 12 1 8 -20 5 -36 -5 -9 -5 -11 -3 -7 6 3 8 -1 17 -8 20 -9 3 -14
-3 -14 -18z"/>
<path d="M4501 1564 c0 -11 3 -14 6 -6 3 7 2 16 -1 19 -3 4 -6 -2 -5 -13z"/>
<path d="M3081 1544 c0 -11 3 -14 6 -6 3 7 2 16 -1 19 -3 4 -6 -2 -5 -13z"/>
<path d="M3201 1544 c0 -11 3 -14 6 -6 3 7 2 16 -1 19 -3 4 -6 -2 -5 -13z"/>
<path d="M3141 1524 c0 -11 3 -14 6 -6 3 7 2 16 -1 19 -3 4 -6 -2 -5 -13z"/>
<path d="M3221 1524 c0 -11 3 -14 6 -6 3 7 2 16 -1 19 -3 4 -6 -2 -5 -13z"/>
<path d="M3301 1524 c0 -11 3 -14 6 -6 3 7 2 16 -1 19 -3 4 -6 -2 -5 -13z"/>
<path d="M2881 1504 c0 -11 3 -14 6 -6 3 7 2 16 -1 19 -3 4 -6 -2 -5 -13z"/>
<path d="M3241 1504 c0 -11 3 -14 6 -6 3 7 2 16 -1 19 -3 4 -6 -2 -5 -13z"/>
<path d="M3281 1504 c0 -11 3 -14 6 -6 3 7 2 16 -1 19 -3 4 -6 -2 -5 -13z"/>
<path d="M3440 1505 c0 -6 6 -12 13 -12 8 0 14 6 14 12 0 6 -6 12 -14 12 -7 0
-13 -6 -13 -12z"/>
<path d="M3603 1505 c0 -6 6 -12 12 -12 6 0 12 6 12 12 0 6 -6 12 -12 12 -6 0
-12 -6 -12 -12z"/>
<path d="M3640 1506 c0 -7 7 -13 15 -13 8 0 15 4 15 8 0 4 -7 9 -15 13 -9 3
-15 0 -15 -8z"/>
<path d="M2590 1490 c-8 -5 -12 -12 -9 -15 4 -3 12 1 19 10 14 17 11 19 -10 5z"/>
<path d="M2549 1463 c-12 -14 -12 -16 0 -8 11 6 13 3 9 -13 -4 -12 -2 -25 3
-28 5 -3 7 -9 4 -13 -2 -5 8 -7 23 -6 52 4 105 45 80 61 -22 14 -50 15 -64 3
-16 -13 -48 -4 -39 11 10 16 -1 11 -16 -7z m114 -18 c-4 -14 -30 -14 -30 0 0
7 7 12 16 10 9 -1 15 -6 14 -10z"/>
<path d="M3241 1464 c0 -11 3 -14 6 -6 3 7 2 16 -1 19 -3 4 -6 -2 -5 -13z"/>
<path d="M3763 1465 c0 -6 6 -12 12 -12 6 0 12 6 12 12 0 6 -6 12 -12 12 -6 0
-12 -6 -12 -12z"/>
<path d="M3840 1465 c0 -7 11 -11 28 -10 33 2 44 -3 36 -16 -4 -6 -11 -6 -19
1 -9 8 -15 8 -20 0 -3 -6 -10 -8 -14 -6 -4 3 -8 -1 -8 -8 0 -7 6 -13 13 -13 7
0 12 3 11 6 -1 3 3 6 8 6 6 0 9 -4 7 -9 -2 -5 4 -3 14 4 20 18 64 21 64 5 0
-6 7 -12 15 -12 10 0 12 4 5 12 -7 8 -5 12 5 12 8 0 15 -6 15 -12 0 -19 26
-13 27 7 1 13 -6 18 -25 19 -43 2 -74 6 -119 17 -33 8 -43 7 -43 -3z"/>
<path d="M4040 1427 c0 -9 17 -13 53 -13 31 0 51 -4 50 -10 -1 -6 4 -11 12
-11 19 0 -5 37 -25 38 -82 8 -90 7 -90 -4z"/>
<path d="M3926 1422 c-3 -5 1 -9 9 -9 8 0 12 4 9 9 -3 4 -7 8 -9 8 -2 0 -6 -4
-9 -8z"/>
<path d="M3461 1404 c0 -11 3 -14 6 -6 3 7 2 16 -1 19 -3 4 -6 -2 -5 -13z"/>
<path d="M3601 1384 c0 -11 3 -14 6 -6 3 7 2 16 -1 19 -3 4 -6 -2 -5 -13z"/>
<path d="M4044 1343 c2 -10 11 -18 22 -18 10 0 24 -3 30 -7 6 -4 21 3 33 16
16 17 18 23 6 23 -8 0 -15 -6 -15 -12 0 -15 -43 -13 -63 3 -13 11 -15 10 -13
-5z"/>
<path d="M701 1324 c0 -11 3 -14 6 -6 3 7 2 16 -1 19 -3 4 -6 -2 -5 -13z"/>
<path d="M721 1304 c0 -11 3 -14 6 -6 3 7 2 16 -1 19 -3 4 -6 -2 -5 -13z"/>
<path d="M3440 1302 c0 -12 3 -12 15 -2 8 7 15 13 15 15 0 1 -7 2 -15 2 -8 0
-15 -7 -15 -15z"/>
<path d="M3480 1305 c0 -6 6 -12 13 -12 8 0 14 6 14 12 0 6 -6 12 -14 12 -7 0
-13 -6 -13 -12z"/>
<path d="M3540 1284 c0 -8 5 -12 10 -9 6 4 8 11 5 16 -9 14 -15 11 -15 -7z"/>
<path d="M3576 1291 c-4 -5 -2 -12 3 -15 5 -4 12 -2 15 3 4 5 2 12 -3 15 -5 4
-12 2 -15 -3z"/>
<path d="M701 1244 c0 -11 3 -14 6 -6 3 7 2 16 -1 19 -3 4 -6 -2 -5 -13z"/>
<path d="M3696 1252 c-3 -5 1 -9 9 -9 8 0 12 4 9 9 -3 4 -7 8 -9 8 -2 0 -6 -4
-9 -8z"/>
<path d="M4101 964 c0 -11 3 -14 6 -6 3 7 2 16 -1 19 -3 4 -6 -2 -5 -13z"/>
<path d="M3801 944 c0 -11 3 -14 6 -6 3 7 2 16 -1 19 -3 4 -6 -2 -5 -13z"/>
<path d="M3841 944 c0 -11 3 -14 6 -6 3 7 2 16 -1 19 -3 4 -6 -2 -5 -13z"/>
<path d="M4221 924 c0 -11 3 -14 6 -6 3 7 2 16 -1 19 -3 4 -6 -2 -5 -13z"/>
<path d="M4121 864 c0 -11 3 -14 6 -6 3 7 2 16 -1 19 -3 4 -6 -2 -5 -13z"/>
<path d="M4320 836 c0 -2 8 -10 18 -17 15 -13 16 -12 3 4 -13 16 -21 21 -21
13z"/>
<path d="M840 785 c0 -6 6 -12 13 -12 8 0 14 6 14 12 0 6 -6 12 -14 12 -7 0
-13 -6 -13 -12z"/>
<path d="M4400 787 c0 -8 7 -14 15 -14 11 0 12 4 4 14 -6 7 -13 13 -15 13 -2
0 -4 -6 -4 -13z"/>
<path d="M4361 704 c0 -11 3 -14 6 -6 3 7 2 16 -1 19 -3 4 -6 -2 -5 -13z"/>
<path d="M4400 704 c0 -8 -5 -12 -10 -9 -6 4 -9 1 -8 -7 2 -7 -3 -12 -9 -10
-7 1 -13 -5 -13 -14 0 -8 -4 -12 -10 -9 -5 3 -10 -2 -10 -11 0 -14 10 -9 40
21 21 21 37 42 34 47 -8 13 -14 10 -14 -8z"/>
<path d="M4341 684 c0 -11 3 -14 6 -6 3 7 2 16 -1 19 -3 4 -6 -2 -5 -13z"/>
<path d="M4083 627 c0 -8 6 -14 14 -14 9 0 10 4 2 14 -6 7 -12 13 -14 13 -1 0
-2 -6 -2 -13z"/>
<path d="M3521 584 c0 -11 3 -14 6 -6 3 7 2 16 -1 19 -3 4 -6 -2 -5 -13z"/>
<path d="M3481 544 c0 -11 3 -14 6 -6 3 7 2 16 -1 19 -3 4 -6 -2 -5 -13z"/>
<path d="M3501 524 c0 -11 3 -14 6 -6 3 7 2 16 -1 19 -3 4 -6 -2 -5 -13z"/>
<path d="M3481 504 c0 -11 3 -14 6 -6 3 7 2 16 -1 19 -3 4 -6 -2 -5 -13z"/>
<path d="M961 469 c0 -9 5 -22 12 -28 10 -8 14 -7 14 4 0 8 -4 12 -8 9 -4 -2
-10 4 -12 13 -4 15 -5 15 -6 2z"/>
<path d="M3481 464 c0 -11 3 -14 6 -6 3 7 2 16 -1 19 -3 4 -6 -2 -5 -13z"/>
<path d="M3601 424 c0 -11 3 -14 6 -6 3 7 2 16 -1 19 -3 4 -6 -2 -5 -13z"/>
<path d="M3585 371 c3 -3 17 -6 31 -7 13 0 22 2 19 5 -3 3 -17 6 -31 7 -13 0
-22 -2 -19 -5z"/>
<path d="M1695 4411 c-3 -5 -2 -12 3 -15 5 -3 9 1 9 9 0 17 -3 19 -12 6z"/>
<path d="M1193 3373 c-7 -2 -13 -10 -13 -15 0 -6 3 -8 7 -5 3 4 13 1 22 -6 14
-10 14 -10 4 4 -7 9 -10 19 -6 22 7 8 4 8 -14 0z"/>
<path d="M3959 3393 c-1 -4 -1 -12 0 -16 1 -5 -3 -6 -8 -3 -5 4 -13 1 -18 -6
-12 -21 -12 -35 3 -35 7 0 12 5 11 11 -1 5 8 10 21 11 12 0 22 5 21 10 -1 6
-5 9 -11 7 -5 -1 -7 2 -4 7 4 5 2 12 -4 16 -5 3 -11 3 -11 -2z"/>
<path d="M4060 3364 c0 -8 5 -12 10 -9 6 4 8 11 5 16 -9 14 -15 11 -15 -7z"/>
<path d="M3966 3342 c-3 -5 1 -9 9 -9 8 0 12 4 9 9 -3 4 -7 8 -9 8 -2 0 -6 -4
-9 -8z"/>
<path d="M3923 3305 c0 -6 6 -12 12 -12 6 0 12 6 12 12 0 6 -6 12 -12 12 -6 0
-12 -6 -12 -12z"/>
<path d="M4043 3265 c0 -6 6 -12 12 -12 6 0 12 6 12 12 0 6 -6 12 -12 12 -6 0
-12 -6 -12 -12z"/>
<path d="M3875 3231 c-3 -5 -1 -12 5 -16 5 -3 10 1 10 9 0 18 -6 21 -15 7z"/>
<path d="M4003 3225 c0 -6 6 -12 12 -12 6 0 12 6 12 12 0 6 -6 12 -12 12 -6 0
-12 -6 -12 -12z"/>
<path d="M4043 3223 c0 -9 4 -10 14 -2 7 6 13 12 13 14 0 1 -6 2 -13 2 -8 0
-14 -6 -14 -14z"/>
<path d="M3880 3185 c0 -6 6 -12 13 -12 8 0 14 6 14 12 0 6 -6 12 -14 12 -7 0
-13 -6 -13 -12z"/>
<path d="M4003 3023 c0 -9 4 -10 14 -2 7 6 13 12 13 14 0 1 -6 2 -13 2 -8 0
-14 -6 -14 -14z"/>
<path d="M4080 3142 c0 -12 3 -12 15 -2 8 7 15 13 15 15 0 1 -7 2 -15 2 -8 0
-15 -7 -15 -15z"/>
<path d="M4299 1313 c-13 -16 -12 -17 4 -4 9 7 17 15 17 17 0 8 -8 3 -21 -13z"/>
<path d="M9296 971 c-4 -5 -2 -12 3 -15 5 -4 12 -2 15 3 4 5 2 12 -3 15 -5 4
-12 2 -15 -3z"/>
<path d="M9106 941 c-14 -15 -26 -33 -26 -40 0 -7 -4 -10 -9 -6 -5 3 -13 0
-16 -6 -5 -7 -15 -3 -29 10 -22 21 -23 21 -39 3 -16 -18 -16 -20 3 -37 14 -13
17 -21 9 -31 -7 -8 -7 -14 1 -19 8 -5 8 -11 1 -19 -8 -9 -6 -18 8 -30 12 -11
21 -14 26 -7 6 10 0 15 -17 12 -9 -1 -4 27 7 36 4 4 5 2 0 -6 -6 -10 -4 -12 5
-6 9 6 11 4 5 -5 -5 -8 -4 -11 3 -6 7 4 9 -4 6 -22 -3 -19 0 -29 9 -29 8 0 13
13 13 33 0 18 -3 32 -7 31 -4 -1 -7 3 -7 8 0 6 3 9 7 8 4 -1 8 4 8 11 0 7 -6
13 -13 13 -7 0 -12 -3 -11 -6 1 -3 -2 -7 -8 -8 -5 -2 -10 8 -10 22 0 14 5 24
10 23 6 -2 9 -6 8 -9 -1 -3 4 -6 12 -6 8 0 13 3 12 6 -1 3 3 6 8 6 6 0 9 -3 8
-6 -1 -3 4 -6 12 -6 8 0 13 4 12 8 -1 4 3 6 8 6 6 -1 9 -5 8 -8 -1 -3 4 -6 11
-6 7 0 13 6 13 13 0 7 -3 12 -6 11 -3 -1 -6 3 -6 8 0 6 3 9 8 8 4 -2 6 3 5 10
-2 6 3 11 10 10 6 -2 11 3 10 10 -2 6 2 11 8 10 6 -1 11 4 11 12 0 8 -3 14 -6
13 -3 0 -8 1 -11 2 -24 9 -42 4 -64 -19z m64 10 c2 -1 -13 -19 -35 -41 -21
-21 -42 -37 -47 -34 -4 3 -6 10 -2 15 3 5 11 6 17 2 8 -5 8 -2 -1 9 -15 19 2
37 31 33 14 -3 16 0 7 10 -9 10 -7 13 7 10 10 -2 20 -4 23 -4z m-147 -66 c-4
-14 -30 -14 -30 0 0 7 7 12 16 10 9 -1 15 -6 14 -10z"/>
<path d="M9106 922 c-3 -5 1 -9 9 -9 8 0 12 4 9 9 -3 4 -7 8 -9 8 -2 0 -6 -4
-9 -8z"/>
<path d="M9363 905 c0 -6 6 -12 12 -12 6 0 12 6 12 12 0 6 -6 12 -12 12 -6 0
-12 -6 -12 -12z"/>
<path d="M9403 905 c0 -6 6 -12 12 -12 6 0 12 6 12 12 0 6 -6 12 -12 12 -6 0
-12 -6 -12 -12z"/>
<path d="M8936 891 c-4 -5 -2 -12 3 -15 5 -4 12 -2 15 3 4 5 2 12 -3 15 -5 4
-12 2 -15 -3z"/>
<path d="M9363 865 c0 -6 6 -12 12 -12 6 0 12 6 12 12 0 6 -6 12 -12 12 -6 0
-12 -6 -12 -12z"/>
<path d="M9403 865 c0 -6 6 -12 12 -12 6 0 12 6 12 12 0 6 -6 12 -12 12 -6 0
-12 -6 -12 -12z"/>
<path d="M9443 865 c0 -6 6 -12 12 -12 6 0 12 6 12 12 0 6 -6 12 -12 12 -6 0
-12 -6 -12 -12z"/>
<path d="M9363 825 c0 -6 6 -12 12 -12 6 0 12 6 12 12 0 6 -6 12 -12 12 -6 0
-12 -6 -12 -12z"/>
<path d="M9323 785 c0 -6 6 -12 12 -12 6 0 12 6 12 12 0 6 -6 12 -12 12 -6 0
-12 -6 -12 -12z"/>
<path d="M9364 765 c0 -17 5 -32 11 -32 6 0 11 15 11 32 0 17 -5 32 -11 32 -6
0 -11 -15 -11 -32z"/>
<path d="M9083 745 c0 -6 6 -12 12 -12 6 0 12 6 12 12 0 6 -6 12 -12 12 -6 0
-12 -6 -12 -12z"/>
<path d="M9243 745 c0 -6 6 -12 12 -12 6 0 12 6 12 12 0 6 -6 12 -12 12 -6 0
-12 -6 -12 -12z"/>
<path d="M9283 745 c0 -6 6 -12 12 -12 6 0 12 6 12 12 0 6 -6 12 -12 12 -6 0
-12 -6 -12 -12z"/>
<path d="M9323 745 c0 -6 6 -12 12 -12 6 0 12 6 12 12 0 6 -6 12 -12 12 -6 0
-12 -6 -12 -12z"/>
<path d="M9043 705 c0 -6 6 -12 12 -12 6 0 12 6 12 12 0 6 -6 12 -12 12 -6 0
-12 -6 -12 -12z"/>
<path d="M9283 705 c0 -6 6 -12 12 -12 6 0 12 6 12 12 0 6 -6 12 -12 12 -6 0
-12 -6 -12 -12z"/>
<path d="M9243 665 c0 -6 6 -12 12 -12 6 0 12 6 12 12 0 6 -6 12 -12 12 -6 0
-12 -6 -12 -12z"/>
<path d="M8963 627 c0 -8 6 -14 14 -14 9 0 10 4 2 14 -6 7 -12 13 -14 13 -1 0
-2 -6 -2 -13z"/>
<path d="M9243 625 c0 -6 6 -12 12 -12 6 0 12 6 12 12 0 6 -6 12 -12 12 -6 0
-12 -6 -12 -12z"/>
<path d="M9456 612 c-4 -4 -12 -7 -17 -7 -5 0 -9 -4 -10 -10 0 -5 -5 -16 -11
-22 -10 -12 -4 -17 15 -14 4 0 7 -6 7 -15 0 -13 3 -14 14 -5 8 7 13 20 11 29
-1 9 2 22 7 29 10 13 -5 27 -16 15z m1 -49 c0 -8 -4 -10 -12 -3 -7 5 -16 6
-20 2 -5 -4 -5 -2 -2 4 9 15 34 13 34 -3z"/>
<path d="M9003 545 c0 -6 6 -12 12 -12 6 0 12 6 12 12 0 6 -6 12 -12 12 -6 0
-12 -6 -12 -12z"/>
<path d="M9169 524 c-10 -12 -10 -20 -1 -35 7 -10 9 -18 5 -17 -5 2 -9 0 -10
-4 -7 -19 -2 -20 17 -3 19 17 19 19 3 38 -10 11 -13 17 -6 14 14 -8 28 9 14
17 -5 3 -15 -1 -22 -10z"/>
<path d="M9135 490 c-4 -6 -11 -8 -16 -5 -5 3 -6 -1 -3 -10 4 -8 1 -22 -6 -30
-22 -26 -5 -16 24 14 16 17 23 31 18 35 -6 4 -13 2 -17 -4z"/>
<path d="M9225 471 c3 -2 0 -9 -5 -16 -16 -19 18 -14 35 5 13 14 12 16 -10 16
-13 0 -22 -2 -20 -5z"/>
<path d="M8783 765 c0 -8 4 -12 9 -9 5 3 6 10 3 15 -9 13 -12 11 -12 -6z"/>
<path d="M8856 771 c-4 -5 -2 -12 3 -15 5 -4 12 -2 15 3 4 5 2 12 -3 15 -5 4
-12 2 -15 -3z"/>
<path d="M8924 703 c2 -10 6 -17 10 -16 15 3 16 11 2 22 -12 10 -14 9 -12 -6z"/>
<path d="M8721 596 c-15 -16 -19 -26 -12 -31 6 -3 9 -10 6 -15 -11 -18 13 -19
29 -1 12 13 14 21 6 26 -8 5 -8 10 0 20 20 24 -7 25 -29 1z m24 -28 c4 -3 2
-9 -3 -12 -5 -3 -15 1 -21 8 -10 11 -9 14 3 12 9 -1 18 -5 21 -8z"/>
<path d="M8776 571 c-4 -5 -2 -12 3 -15 5 -4 12 -2 15 3 4 5 2 12 -3 15 -5 4
-12 2 -15 -3z"/>
<path d="M8860 556 c0 -2 8 -10 18 -17 15 -13 16 -12 3 4 -13 16 -21 21 -21
13z"/>
<path d="M8720 504 c0 -8 -4 -13 -8 -10 -5 3 -9 -1 -9 -9 0 -13 3 -12 18 1 10
9 16 21 13 25 -8 14 -14 11 -14 -7z"/>
<path d="M8816 451 c-4 -5 -2 -12 3 -15 5 -4 12 -2 15 3 4 5 2 12 -3 15 -5 4
-12 2 -15 -3z"/>
<path d="M8883 585 c0 -6 6 -12 12 -12 6 0 12 6 12 12 0 6 -6 12 -12 12 -6 0
-12 -6 -12 -12z"/>
<path d="M9394 625 c0 -13 3 -22 7 -19 8 4 6 30 -2 38 -3 3 -5 -5 -5 -19z"/>
<path d="M9287 523 c-12 -11 -8 -30 7 -30 7 0 13 6 12 13 -3 18 -11 25 -19 17z"/>
<path d="M8823 645 c0 -6 6 -12 12 -12 6 0 12 6 12 12 0 6 -6 12 -12 12 -6 0
-12 -6 -12 -12z"/>
</g>
</svg>
